<svg width="16" height="16" viewBox="0 0 16 16" fill="none" xmlns="http://www.w3.org/2000/svg">
<path fill-rule="evenodd" clip-rule="evenodd" d="M0 8C0 12.418 3.58333 16 8.00267 16C8.72333 16 9.41867 15.896 10.0827 15.7173L9.63933 14.4547C9.11467 14.588 8.568 14.6667 8.00267 14.6667C4.32533 14.6667 1.334 11.676 1.334 8C1.334 4.324 4.32533 1.33333 8.00267 1.33333C9.49267 1.33333 10.8647 1.82933 11.9753 2.65933L10.6087 4.02533L15.2853 4.928L14.382 0.252667L12.926 1.708C11.5687 0.642667 9.86267 0 8.00267 0C3.58333 0 0 3.582 0 8ZM7.33333 9.33333V4H8.66667V8H12V9.33333H7.33333ZM15.9013 9.228L14.5693 9.122C14.502 9.516 14.4 9.89733 14.2667 10.2647L15.4667 10.868C15.6673 10.3453 15.8133 9.79733 15.9013 9.228ZM12.8707 14.3393L11.9287 13.3773C11.6047 13.6147 11.258 13.8227 10.892 13.9993L11.338 15.2653C11.8853 15.014 12.3987 14.7027 12.8707 14.3393ZM12.922 12.4853C13.2087 12.1713 13.4647 11.8307 13.688 11.4667L14.884 12.0687C14.5907 12.5633 14.2467 13.0227 13.858 13.4407L12.922 12.4853ZM14.4647 6.42733H15.8487C15.9433 6.90333 15.9933 7.396 16 7.89933L14.6567 7.792C14.6387 7.32333 14.5733 6.868 14.4647 6.42733Z" fill="white"/>
</svg>
