<svg width="174" height="188" viewBox="0 0 174 188" fill="none" xmlns="http://www.w3.org/2000/svg">
<g filter="url(#filter0_d_1_34)">
<path d="M79 14.6188C83.9504 11.7607 90.0496 11.7607 95 14.6188L141.354 41.3812C146.304 44.2393 149.354 49.5214 149.354 55.2376V108.762C149.354 114.479 146.304 119.761 141.354 122.619L95 149.381C90.0496 152.239 83.9504 152.239 79 149.381L32.6462 122.619C27.6958 119.761 24.6462 114.479 24.6462 108.762V55.2376C24.6462 49.5214 27.6958 44.2393 32.6462 41.3812L79 14.6188Z" fill="url(#paint0_linear_1_34)"/>
<path d="M94.5 15.4848L140.854 42.2472C145.495 44.9267 148.354 49.8786 148.354 55.2376V108.762C148.354 114.121 145.495 119.073 140.854 121.753L94.5 148.515C89.859 151.195 84.141 151.195 79.5 148.515L33.1462 121.753C28.5052 119.073 25.6462 114.121 25.6462 108.762V55.2376C25.6462 49.8786 28.5052 44.9267 33.1462 42.2472L79.5 15.4848C84.141 12.8053 89.859 12.8053 94.5 15.4848Z" stroke="white" stroke-opacity="0.0782099" stroke-width="2"/>
</g>
<path d="M92 28.3301L129.796 50.1519C133.2 52.1169 135.296 55.7483 135.296 59.6782V103.322C135.296 107.252 133.2 110.883 129.796 112.848L92 134.67C88.5966 136.635 84.4034 136.635 81 134.67L43.2035 112.848C39.8001 110.883 37.7035 107.252 37.7035 103.322V59.6782C37.7035 55.7483 39.8001 52.1169 43.2035 50.1519L81 28.3301C84.4034 26.3652 88.5966 26.3652 92 28.3301Z" stroke="#6357F6" stroke-width="2"/>
<g filter="url(#filter1_d_1_34)">
<mask id="path-4-inside-1_1_34" fill="white">
<path fill-rule="evenodd" clip-rule="evenodd" d="M106.623 74.3614L109.84 87.8342C110.714 91.495 107.892 95 104.08 95C102.456 95 100.93 94.1484 100.096 92.7779L97.6179 88.7089C97.1942 88.0124 96.419 87.5798 95.595 87.5798H76.4046C75.5806 87.5798 74.8057 88.0121 74.382 88.7085L71.9035 92.7782C71.0697 94.1484 69.5437 95 67.9214 95C64.1036 95 61.2864 91.4914 62.1598 87.8342L65.3773 74.3614C66.5613 69.4022 71.0253 67 74.8094 67H97.1909C102.361 67 105.756 70.7319 106.623 74.3614ZM78.3697 78.6754H79.9758C80.7522 78.6754 81.3817 78.0551 81.3817 77.2901C81.3817 76.5247 80.7522 75.9044 79.9758 75.9044H78.3697V74.3217C78.3697 73.5567 77.7401 72.9364 76.9634 72.9364C76.187 72.9364 75.5575 73.5567 75.5575 74.3217V75.9044H73.9513C73.175 75.9044 72.5455 76.5247 72.5455 77.2901C72.5455 78.0551 73.175 78.6754 73.9513 78.6754H75.5575V80.2581C75.5575 81.0231 76.187 81.6434 76.9634 81.6434C77.7401 81.6434 78.3697 81.0231 78.3697 80.2581V78.6754ZM92.0241 78.6754C91.2481 78.6754 90.6182 78.0547 90.6182 77.2901C90.6182 76.5251 91.2485 75.9044 92.0241 75.9044C92.8005 75.9044 93.4303 76.5251 93.4303 77.2901C93.4303 78.0547 92.8005 78.6754 92.0241 78.6754ZM93.6303 80.2581C93.6303 81.0227 94.2605 81.6434 95.0365 81.6434C95.8125 81.6434 96.4424 81.0227 96.4424 80.2581C96.4424 79.4934 95.8125 78.8724 95.0365 78.8724C94.2605 78.8724 93.6303 79.4934 93.6303 80.2581ZM95.0365 75.7074C94.2605 75.7074 93.6303 75.0867 93.6303 74.3217C93.6303 73.5571 94.2605 72.9364 95.0365 72.9364C95.8125 72.9364 96.4424 73.5571 96.4424 74.3217C96.4424 75.0867 95.8125 75.7074 95.0365 75.7074ZM96.6424 77.2901C96.6424 78.0547 97.2726 78.6754 98.0486 78.6754C98.8246 78.6754 99.4545 78.0547 99.4545 77.2901C99.4545 76.5251 98.8246 75.9044 98.0486 75.9044C97.2726 75.9044 96.6424 76.5251 96.6424 77.2901Z"/>
</mask>
<path fill-rule="evenodd" clip-rule="evenodd" d="M106.623 74.3614L109.84 87.8342C110.714 91.495 107.892 95 104.08 95C102.456 95 100.93 94.1484 100.096 92.7779L97.6179 88.7089C97.1942 88.0124 96.419 87.5798 95.595 87.5798H76.4046C75.5806 87.5798 74.8057 88.0121 74.382 88.7085L71.9035 92.7782C71.0697 94.1484 69.5437 95 67.9214 95C64.1036 95 61.2864 91.4914 62.1598 87.8342L65.3773 74.3614C66.5613 69.4022 71.0253 67 74.8094 67H97.1909C102.361 67 105.756 70.7319 106.623 74.3614ZM78.3697 78.6754H79.9758C80.7522 78.6754 81.3817 78.0551 81.3817 77.2901C81.3817 76.5247 80.7522 75.9044 79.9758 75.9044H78.3697V74.3217C78.3697 73.5567 77.7401 72.9364 76.9634 72.9364C76.187 72.9364 75.5575 73.5567 75.5575 74.3217V75.9044H73.9513C73.175 75.9044 72.5455 76.5247 72.5455 77.2901C72.5455 78.0551 73.175 78.6754 73.9513 78.6754H75.5575V80.2581C75.5575 81.0231 76.187 81.6434 76.9634 81.6434C77.7401 81.6434 78.3697 81.0231 78.3697 80.2581V78.6754ZM92.0241 78.6754C91.2481 78.6754 90.6182 78.0547 90.6182 77.2901C90.6182 76.5251 91.2485 75.9044 92.0241 75.9044C92.8005 75.9044 93.4303 76.5251 93.4303 77.2901C93.4303 78.0547 92.8005 78.6754 92.0241 78.6754ZM93.6303 80.2581C93.6303 81.0227 94.2605 81.6434 95.0365 81.6434C95.8125 81.6434 96.4424 81.0227 96.4424 80.2581C96.4424 79.4934 95.8125 78.8724 95.0365 78.8724C94.2605 78.8724 93.6303 79.4934 93.6303 80.2581ZM95.0365 75.7074C94.2605 75.7074 93.6303 75.0867 93.6303 74.3217C93.6303 73.5571 94.2605 72.9364 95.0365 72.9364C95.8125 72.9364 96.4424 73.5571 96.4424 74.3217C96.4424 75.0867 95.8125 75.7074 95.0365 75.7074ZM96.6424 77.2901C96.6424 78.0547 97.2726 78.6754 98.0486 78.6754C98.8246 78.6754 99.4545 78.0547 99.4545 77.2901C99.4545 76.5251 98.8246 75.9044 98.0486 75.9044C97.2726 75.9044 96.6424 76.5251 96.6424 77.2901Z" fill="url(#paint1_linear_1_34)"/>
<path fill-rule="evenodd" clip-rule="evenodd" d="M106.623 74.3614L109.84 87.8342C110.714 91.495 107.892 95 104.08 95C102.456 95 100.93 94.1484 100.096 92.7779L97.6179 88.7089C97.1942 88.0124 96.419 87.5798 95.595 87.5798H76.4046C75.5806 87.5798 74.8057 88.0121 74.382 88.7085L71.9035 92.7782C71.0697 94.1484 69.5437 95 67.9214 95C64.1036 95 61.2864 91.4914 62.1598 87.8342L65.3773 74.3614C66.5613 69.4022 71.0253 67 74.8094 67H97.1909C102.361 67 105.756 70.7319 106.623 74.3614ZM78.3697 78.6754H79.9758C80.7522 78.6754 81.3817 78.0551 81.3817 77.2901C81.3817 76.5247 80.7522 75.9044 79.9758 75.9044H78.3697V74.3217C78.3697 73.5567 77.7401 72.9364 76.9634 72.9364C76.187 72.9364 75.5575 73.5567 75.5575 74.3217V75.9044H73.9513C73.175 75.9044 72.5455 76.5247 72.5455 77.2901C72.5455 78.0551 73.175 78.6754 73.9513 78.6754H75.5575V80.2581C75.5575 81.0231 76.187 81.6434 76.9634 81.6434C77.7401 81.6434 78.3697 81.0231 78.3697 80.2581V78.6754ZM92.0241 78.6754C91.2481 78.6754 90.6182 78.0547 90.6182 77.2901C90.6182 76.5251 91.2485 75.9044 92.0241 75.9044C92.8005 75.9044 93.4303 76.5251 93.4303 77.2901C93.4303 78.0547 92.8005 78.6754 92.0241 78.6754ZM93.6303 80.2581C93.6303 81.0227 94.2605 81.6434 95.0365 81.6434C95.8125 81.6434 96.4424 81.0227 96.4424 80.2581C96.4424 79.4934 95.8125 78.8724 95.0365 78.8724C94.2605 78.8724 93.6303 79.4934 93.6303 80.2581ZM95.0365 75.7074C94.2605 75.7074 93.6303 75.0867 93.6303 74.3217C93.6303 73.5571 94.2605 72.9364 95.0365 72.9364C95.8125 72.9364 96.4424 73.5571 96.4424 74.3217C96.4424 75.0867 95.8125 75.7074 95.0365 75.7074ZM96.6424 77.2901C96.6424 78.0547 97.2726 78.6754 98.0486 78.6754C98.8246 78.6754 99.4545 78.0547 99.4545 77.2901C99.4545 76.5251 98.8246 75.9044 98.0486 75.9044C97.2726 75.9044 96.6424 76.5251 96.6424 77.2901Z" fill="url(#paint2_linear_1_34)"/>
<path d="M109.84 87.8342L110.813 87.6019L110.813 87.6019L109.84 87.8342ZM106.623 74.3614L105.65 74.5936L105.65 74.5937L106.623 74.3614ZM100.096 92.7779L100.95 92.2579L100.95 92.2577L100.096 92.7779ZM97.6179 88.7089L96.7636 89.2286L96.7639 89.2291L97.6179 88.7089ZM74.382 88.7085L75.2361 89.2287L75.2363 89.2283L74.382 88.7085ZM71.9035 92.7782L71.0494 92.2581L71.0493 92.2584L71.9035 92.7782ZM62.1598 87.8342L63.1324 88.0665L63.1324 88.0665L62.1598 87.8342ZM65.3773 74.3614L66.35 74.5937L66.35 74.5936L65.3773 74.3614ZM78.3697 78.6754V77.6754H77.3697V78.6754H78.3697ZM78.3697 75.9044H77.3697V76.9044H78.3697V75.9044ZM75.5575 75.9044V76.9044H76.5575V75.9044H75.5575ZM75.5575 78.6754H76.5575V77.6754H75.5575V78.6754ZM110.813 87.6019L107.595 74.1291L105.65 74.5937L108.868 88.0665L110.813 87.6019ZM104.08 96C108.519 96 111.842 91.9103 110.813 87.6019L108.868 88.0664C109.587 91.0797 107.266 94 104.08 94V96ZM99.2419 93.2978C100.26 94.9706 102.112 96 104.08 96V94C102.8 94 101.601 93.3262 100.95 92.2579L99.2419 93.2978ZM96.7639 89.2291L99.242 93.298L100.95 92.2577L98.472 88.1887L96.7639 89.2291ZM95.595 88.5798C96.0746 88.5798 96.5238 88.8344 96.7636 89.2286L98.4723 88.1891C97.8647 87.1905 96.7634 86.5798 95.595 86.5798V88.5798ZM76.4046 88.5798H95.595V86.5798H76.4046V88.5798ZM75.2363 89.2283C75.4761 88.8341 75.9249 88.5798 76.4046 88.5798V86.5798C75.2363 86.5798 74.1353 87.19 73.5277 88.1888L75.2363 89.2283ZM72.7576 93.2984L75.2361 89.2287L73.5279 88.1884L71.0494 92.2581L72.7576 93.2984ZM67.9214 96C69.8879 96 71.74 94.9705 72.7577 93.2981L71.0493 92.2584C70.3993 93.3263 69.1994 94 67.9214 94V96ZM61.1871 87.6019C60.1593 91.906 63.4764 96 67.9214 96V94C64.7309 94 62.4135 91.0768 63.1324 88.0665L61.1871 87.6019ZM64.4047 74.1291L61.1871 87.6019L63.1324 88.0665L66.35 74.5937L64.4047 74.1291ZM74.8094 66C70.6605 66 65.7173 68.631 64.4046 74.1292L66.35 74.5936C67.4052 70.1734 71.3902 68 74.8094 68V66ZM97.1909 66H74.8094V68H97.1909V66ZM107.595 74.1292C106.64 70.1257 102.898 66 97.1909 66V68C101.824 68 104.873 71.3382 105.65 74.5936L107.595 74.1292ZM79.9758 77.6754H78.3697V79.6754H79.9758V77.6754ZM80.3817 77.2901C80.3817 77.489 80.2139 77.6754 79.9758 77.6754V79.6754C81.2905 79.6754 82.3817 78.6212 82.3817 77.2901H80.3817ZM79.9758 76.9044C80.2137 76.9044 80.3817 77.0907 80.3817 77.2901H82.3817C82.3817 75.9588 81.2907 74.9044 79.9758 74.9044V76.9044ZM78.3697 76.9044H79.9758V74.9044H78.3697V76.9044ZM77.3697 74.3217V75.9044H79.3697V74.3217H77.3697ZM76.9634 73.9364C77.202 73.9364 77.3697 74.123 77.3697 74.3217H79.3697C79.3697 72.9904 78.2783 71.9364 76.9634 71.9364V73.9364ZM76.5575 74.3217C76.5575 74.1228 76.7254 73.9364 76.9634 73.9364V71.9364C75.6487 71.9364 74.5575 72.9906 74.5575 74.3217H76.5575ZM76.5575 75.9044V74.3217H74.5575V75.9044H76.5575ZM73.9513 76.9044H75.5575V74.9044H73.9513V76.9044ZM73.5455 77.2901C73.5455 77.0907 73.7135 76.9044 73.9513 76.9044V74.9044C72.6365 74.9044 71.5455 75.9588 71.5455 77.2901H73.5455ZM73.9513 77.6754C73.7133 77.6754 73.5455 77.489 73.5455 77.2901H71.5455C71.5455 78.6212 72.6366 79.6754 73.9513 79.6754V77.6754ZM75.5575 77.6754H73.9513V79.6754H75.5575V77.6754ZM76.5575 80.2581V78.6754H74.5575V80.2581H76.5575ZM76.9634 80.6434C76.7254 80.6434 76.5575 80.457 76.5575 80.2581H74.5575C74.5575 81.5892 75.6487 82.6434 76.9634 82.6434V80.6434ZM77.3697 80.2581C77.3697 80.4568 77.202 80.6434 76.9634 80.6434V82.6434C78.2783 82.6434 79.3697 81.5894 79.3697 80.2581H77.3697ZM77.3697 78.6754V80.2581H79.3697V78.6754H77.3697ZM89.6182 77.2901C89.6182 78.6208 90.7098 79.6754 92.0241 79.6754V77.6754C91.7865 77.6754 91.6182 77.4886 91.6182 77.2901H89.6182ZM92.0241 74.9044C90.7101 74.9044 89.6182 75.9589 89.6182 77.2901H91.6182C91.6182 77.0912 91.7868 76.9044 92.0241 76.9044V74.9044ZM94.4303 77.2901C94.4303 75.9589 93.3388 74.9044 92.0241 74.9044V76.9044C92.2621 76.9044 92.4303 77.0912 92.4303 77.2901H94.4303ZM92.0241 79.6754C93.3386 79.6754 94.4303 78.621 94.4303 77.2901H92.4303C92.4303 77.4884 92.2623 77.6754 92.0241 77.6754V79.6754ZM95.0365 80.6434C94.7985 80.6434 94.6303 80.4563 94.6303 80.2581H92.6303C92.6303 81.5892 93.7225 82.6434 95.0365 82.6434V80.6434ZM95.4424 80.2581C95.4424 80.4566 95.2742 80.6434 95.0365 80.6434V82.6434C96.3509 82.6434 97.4424 81.5889 97.4424 80.2581H95.4424ZM95.0365 79.8724C95.2739 79.8724 95.4424 80.0592 95.4424 80.2581H97.4424C97.4424 78.9277 96.3512 77.8724 95.0365 77.8724V79.8724ZM94.6303 80.2581C94.6303 80.0596 94.7989 79.8724 95.0365 79.8724V77.8724C93.7222 77.8724 92.6303 78.9273 92.6303 80.2581H94.6303ZM92.6303 74.3217C92.6303 75.653 93.7224 76.7074 95.0365 76.7074V74.7074C94.7987 74.7074 94.6303 74.5204 94.6303 74.3217H92.6303ZM95.0365 71.9364C93.7225 71.9364 92.6303 72.9906 92.6303 74.3217H94.6303C94.6303 74.1235 94.7985 73.9364 95.0365 73.9364V71.9364ZM97.4424 74.3217C97.4424 72.9909 96.3509 71.9364 95.0365 71.9364V73.9364C95.2742 73.9364 95.4424 74.1232 95.4424 74.3217H97.4424ZM95.0365 76.7074C96.351 76.7074 97.4424 75.6527 97.4424 74.3217H95.4424C95.4424 74.5208 95.274 74.7074 95.0365 74.7074V76.7074ZM98.0486 77.6754C97.8106 77.6754 97.6424 77.4883 97.6424 77.2901H95.6424C95.6424 78.6212 96.7346 79.6754 98.0486 79.6754V77.6754ZM98.4545 77.2901C98.4545 77.4886 98.2863 77.6754 98.0486 77.6754V79.6754C99.3629 79.6754 100.454 78.6208 100.454 77.2901H98.4545ZM98.0486 76.9044C98.2861 76.9044 98.4545 77.091 98.4545 77.2901H100.454C100.454 75.9591 99.3631 74.9044 98.0486 74.9044V76.9044ZM97.6424 77.2901C97.6424 77.0914 97.8108 76.9044 98.0486 76.9044V74.9044C96.7344 74.9044 95.6424 75.9588 95.6424 77.2901H97.6424Z" fill="white" fill-opacity="0.0782099" mask="url(#path-4-inside-1_1_34)"/>
</g>
<defs>
<filter id="filter0_d_1_34" x="0.646164" y="0.475098" width="172.708" height="187.05" filterUnits="userSpaceOnUse" color-interpolation-filters="sRGB">
<feFlood flood-opacity="0" result="BackgroundImageFix"/>
<feColorMatrix in="SourceAlpha" type="matrix" values="0 0 0 0 0 0 0 0 0 0 0 0 0 0 0 0 0 0 127 0" result="hardAlpha"/>
<feOffset dy="12"/>
<feGaussianBlur stdDeviation="12"/>
<feColorMatrix type="matrix" values="0 0 0 0 0 0 0 0 0 0.0037911 0 0 0 0 0.170599 0 0 0 0.157184 0"/>
<feBlend mode="normal" in2="BackgroundImageFix" result="effect1_dropShadow_1_34"/>
<feBlend mode="normal" in="SourceGraphic" in2="effect1_dropShadow_1_34" result="shape"/>
</filter>
<filter id="filter1_d_1_34" x="54" y="63" width="64" height="44" filterUnits="userSpaceOnUse" color-interpolation-filters="sRGB">
<feFlood flood-opacity="0" result="BackgroundImageFix"/>
<feColorMatrix in="SourceAlpha" type="matrix" values="0 0 0 0 0 0 0 0 0 0 0 0 0 0 0 0 0 0 127 0" result="hardAlpha"/>
<feOffset dy="4"/>
<feGaussianBlur stdDeviation="4"/>
<feColorMatrix type="matrix" values="0 0 0 0 0 0 0 0 0 0.0037911 0 0 0 0 0.170599 0 0 0 0.157184 0"/>
<feBlend mode="normal" in2="BackgroundImageFix" result="effect1_dropShadow_1_34"/>
<feBlend mode="normal" in="SourceGraphic" in2="effect1_dropShadow_1_34" result="shape"/>
</filter>
<linearGradient id="paint0_linear_1_34" x1="15" y1="10" x2="15" y2="154" gradientUnits="userSpaceOnUse">
<stop stop-color="#4D4F95"/>
<stop offset="1" stop-color="#2B2D66"/>
</linearGradient>
<linearGradient id="paint1_linear_1_34" x1="62" y1="67" x2="62" y2="95" gradientUnits="userSpaceOnUse">
<stop stop-color="#4D4F95"/>
<stop offset="1" stop-color="#2B2D66"/>
</linearGradient>
<linearGradient id="paint2_linear_1_34" x1="110" y1="67" x2="62" y2="67" gradientUnits="userSpaceOnUse">
<stop stop-color="#6357F6"/>
<stop offset="1" stop-color="#E6606C"/>
</linearGradient>
</defs>
</svg>
