<svg width="174" height="188" viewBox="0 0 174 188" fill="none" xmlns="http://www.w3.org/2000/svg">
<g filter="url(#filter0_d_1_35)">
<path d="M79 14.6188C83.9504 11.7607 90.0496 11.7607 95 14.6188L141.354 41.3812C146.304 44.2393 149.354 49.5214 149.354 55.2376V108.762C149.354 114.479 146.304 119.761 141.354 122.619L95 149.381C90.0496 152.239 83.9504 152.239 79 149.381L32.6462 122.619C27.6958 119.761 24.6462 114.479 24.6462 108.762V55.2376C24.6462 49.5214 27.6958 44.2393 32.6462 41.3812L79 14.6188Z" fill="url(#paint0_linear_1_35)"/>
<path d="M94.5 15.4848L140.854 42.2472C145.495 44.9267 148.354 49.8786 148.354 55.2376V108.762C148.354 114.121 145.495 119.073 140.854 121.753L94.5 148.515C89.859 151.195 84.141 151.195 79.5 148.515L33.1462 121.753C28.5052 119.073 25.6462 114.121 25.6462 108.762V55.2376C25.6462 49.8786 28.5052 44.9267 33.1462 42.2472L79.5 15.4848C84.141 12.8053 89.859 12.8053 94.5 15.4848Z" stroke="white" stroke-opacity="0.0782099" stroke-width="2"/>
</g>
<path d="M92 28.3301L129.796 50.1519C133.2 52.1169 135.296 55.7483 135.296 59.6782V103.322C135.296 107.252 133.2 110.883 129.796 112.848L92 134.67C88.5966 136.635 84.4034 136.635 81 134.67L43.2035 112.848C39.8001 110.883 37.7035 107.252 37.7035 103.322V59.6782C37.7035 55.7483 39.8001 52.1169 43.2035 50.1519L81 28.3301C84.4034 26.3652 88.5966 26.3652 92 28.3301Z" stroke="#AD47BF" stroke-width="2"/>
<g filter="url(#filter1_d_1_35)">
<mask id="path-4-inside-1_1_35" fill="white">
<path fill-rule="evenodd" clip-rule="evenodd" d="M80.3895 68.4097L79.7303 74.1275C79.6728 74.6263 79.8907 75.1168 80.3008 75.4116C80.711 75.7067 81.2493 75.7603 81.7107 75.5522L87.0003 73.1643L92.2894 75.5522L92.2912 75.5531C92.3337 75.5731 93.0232 75.8982 93.6993 75.4116C94.1095 75.1168 94.3277 74.6263 94.2702 74.1275L93.6107 68.4097L97.5394 64.1677C97.8821 63.7979 97.9971 63.274 97.8404 62.7966C97.6836 62.3195 97.2797 61.9624 96.7831 61.8627L91.086 60.7168L88.2241 55.7069C87.9747 55.2701 87.5071 55 87.0003 55C86.4931 55 86.0254 55.2701 85.776 55.7069L82.9145 60.7168L77.217 61.8627C76.7204 61.9624 76.3165 62.3195 76.1598 62.7966C76.0034 63.2737 76.118 63.7979 76.4608 64.1677L80.3895 68.4097ZM97.1017 71.5031C96.7733 71.1482 96.663 70.6461 96.8132 70.1882C96.9633 69.7307 97.3508 69.3885 97.8268 69.2928L101.07 68.6402L102.699 65.7882C102.939 65.3691 103.387 65.1103 103.873 65.1103C104.359 65.1103 104.808 65.3695 105.047 65.7882L106.676 68.6402L109.919 69.2928C110.396 69.3885 110.783 69.7307 110.933 70.1882C111.084 70.6461 110.974 71.1482 110.645 71.5031L108.409 73.9183L108.784 77.1739C108.839 77.6517 108.63 78.1222 108.237 78.405C107.583 78.8749 106.917 78.5551 106.886 78.54L106.885 78.5395L103.873 77.18L100.862 78.5395C100.42 78.7393 99.9036 78.6878 99.5099 78.405C99.117 78.1222 98.9079 77.6517 98.9628 77.1739L99.3382 73.9183L97.1017 71.5031ZM103.466 92.6427V83.6965C103.466 83.086 103.067 82.5593 102.501 82.3747C97.506 80.6465 92.2905 79.7703 86.9988 79.7703C81.7071 79.7703 76.4915 80.6465 71.4965 82.3747C70.931 82.5593 70.5311 83.086 70.5311 83.6965V92.6427C70.5311 93.6175 71.5148 94.2831 72.4263 93.9485C77.1218 92.3244 82.0242 91.5007 86.9988 91.5007C91.9734 91.5007 96.8762 92.3244 101.572 93.9485C102.476 94.2806 103.466 93.6255 103.466 92.6427ZM108.2 92.8714L110.843 97.9719C111.378 99.0058 110.468 100.2 109.316 99.9716L101.785 98.4813C101.127 98.3504 100.654 97.7798 100.654 97.1163V96.5805C101.107 96.7393 101.58 96.819 102.059 96.819C104.386 96.819 106.279 94.9455 106.279 92.6431V86.0939L109.867 86.8049C110.839 86.997 111.31 88.1002 110.772 88.9246L108.2 92.8714ZM67.7183 86.095V92.6431C67.7183 94.9861 69.6438 96.8201 71.9377 96.8201C72.4178 96.8201 72.891 96.7386 73.3458 96.5798V97.1163C73.3458 97.7798 72.8723 98.3504 72.2153 98.4813L64.6846 99.9716C63.5325 100.2 62.6225 99.0055 63.1575 97.9719L65.7994 92.8714L63.2271 88.9246C62.6899 88.1005 63.1612 86.997 64.1335 86.8049L67.7183 86.095ZM65.216 77.1735L65.5914 73.9183L63.3546 71.5028C63.0261 71.1482 62.9158 70.6461 63.066 70.1882C63.2165 69.7307 63.6039 69.3885 64.08 69.2924L67.3235 68.6402L68.9528 65.7882C69.1919 65.3691 69.6405 65.1103 70.1265 65.1103C70.6124 65.1103 71.061 65.3691 71.3002 65.7882L72.9294 68.6402L76.1729 69.2924C76.649 69.3881 77.0365 69.7307 77.187 70.1882C77.3371 70.6461 77.2269 71.1482 76.8984 71.5028L74.662 73.9183L75.037 77.1735C75.0923 77.6517 74.8832 78.1222 74.4898 78.405C73.8364 78.8749 73.1702 78.5551 73.1388 78.54L73.1378 78.5395L70.1265 77.18L67.1155 78.5395C66.6731 78.7393 66.1564 78.6878 65.7631 78.405C65.3702 78.1222 65.1611 77.6517 65.216 77.1735Z"/>
</mask>
<path fill-rule="evenodd" clip-rule="evenodd" d="M80.3895 68.4097L79.7303 74.1275C79.6728 74.6263 79.8907 75.1168 80.3008 75.4116C80.711 75.7067 81.2493 75.7603 81.7107 75.5522L87.0003 73.1643L92.2894 75.5522L92.2912 75.5531C92.3337 75.5731 93.0232 75.8982 93.6993 75.4116C94.1095 75.1168 94.3277 74.6263 94.2702 74.1275L93.6107 68.4097L97.5394 64.1677C97.8821 63.7979 97.9971 63.274 97.8404 62.7966C97.6836 62.3195 97.2797 61.9624 96.7831 61.8627L91.086 60.7168L88.2241 55.7069C87.9747 55.2701 87.5071 55 87.0003 55C86.4931 55 86.0254 55.2701 85.776 55.7069L82.9145 60.7168L77.217 61.8627C76.7204 61.9624 76.3165 62.3195 76.1598 62.7966C76.0034 63.2737 76.118 63.7979 76.4608 64.1677L80.3895 68.4097ZM97.1017 71.5031C96.7733 71.1482 96.663 70.6461 96.8132 70.1882C96.9633 69.7307 97.3508 69.3885 97.8268 69.2928L101.07 68.6402L102.699 65.7882C102.939 65.3691 103.387 65.1103 103.873 65.1103C104.359 65.1103 104.808 65.3695 105.047 65.7882L106.676 68.6402L109.919 69.2928C110.396 69.3885 110.783 69.7307 110.933 70.1882C111.084 70.6461 110.974 71.1482 110.645 71.5031L108.409 73.9183L108.784 77.1739C108.839 77.6517 108.63 78.1222 108.237 78.405C107.583 78.8749 106.917 78.5551 106.886 78.54L106.885 78.5395L103.873 77.18L100.862 78.5395C100.42 78.7393 99.9036 78.6878 99.5099 78.405C99.117 78.1222 98.9079 77.6517 98.9628 77.1739L99.3382 73.9183L97.1017 71.5031ZM103.466 92.6427V83.6965C103.466 83.086 103.067 82.5593 102.501 82.3747C97.506 80.6465 92.2905 79.7703 86.9988 79.7703C81.7071 79.7703 76.4915 80.6465 71.4965 82.3747C70.931 82.5593 70.5311 83.086 70.5311 83.6965V92.6427C70.5311 93.6175 71.5148 94.2831 72.4263 93.9485C77.1218 92.3244 82.0242 91.5007 86.9988 91.5007C91.9734 91.5007 96.8762 92.3244 101.572 93.9485C102.476 94.2806 103.466 93.6255 103.466 92.6427ZM108.2 92.8714L110.843 97.9719C111.378 99.0058 110.468 100.2 109.316 99.9716L101.785 98.4813C101.127 98.3504 100.654 97.7798 100.654 97.1163V96.5805C101.107 96.7393 101.58 96.819 102.059 96.819C104.386 96.819 106.279 94.9455 106.279 92.6431V86.0939L109.867 86.8049C110.839 86.997 111.31 88.1002 110.772 88.9246L108.2 92.8714ZM67.7183 86.095V92.6431C67.7183 94.9861 69.6438 96.8201 71.9377 96.8201C72.4178 96.8201 72.891 96.7386 73.3458 96.5798V97.1163C73.3458 97.7798 72.8723 98.3504 72.2153 98.4813L64.6846 99.9716C63.5325 100.2 62.6225 99.0055 63.1575 97.9719L65.7994 92.8714L63.2271 88.9246C62.6899 88.1005 63.1612 86.997 64.1335 86.8049L67.7183 86.095ZM65.216 77.1735L65.5914 73.9183L63.3546 71.5028C63.0261 71.1482 62.9158 70.6461 63.066 70.1882C63.2165 69.7307 63.6039 69.3885 64.08 69.2924L67.3235 68.6402L68.9528 65.7882C69.1919 65.3691 69.6405 65.1103 70.1265 65.1103C70.6124 65.1103 71.061 65.3691 71.3002 65.7882L72.9294 68.6402L76.1729 69.2924C76.649 69.3881 77.0365 69.7307 77.187 70.1882C77.3371 70.6461 77.2269 71.1482 76.8984 71.5028L74.662 73.9183L75.037 77.1735C75.0923 77.6517 74.8832 78.1222 74.4898 78.405C73.8364 78.8749 73.1702 78.5551 73.1388 78.54L73.1378 78.5395L70.1265 77.18L67.1155 78.5395C66.6731 78.7393 66.1564 78.6878 65.7631 78.405C65.3702 78.1222 65.1611 77.6517 65.216 77.1735Z" fill="url(#paint1_linear_1_35)"/>
<path fill-rule="evenodd" clip-rule="evenodd" d="M80.3895 68.4097L79.7303 74.1275C79.6728 74.6263 79.8907 75.1168 80.3008 75.4116C80.711 75.7067 81.2493 75.7603 81.7107 75.5522L87.0003 73.1643L92.2894 75.5522L92.2912 75.5531C92.3337 75.5731 93.0232 75.8982 93.6993 75.4116C94.1095 75.1168 94.3277 74.6263 94.2702 74.1275L93.6107 68.4097L97.5394 64.1677C97.8821 63.7979 97.9971 63.274 97.8404 62.7966C97.6836 62.3195 97.2797 61.9624 96.7831 61.8627L91.086 60.7168L88.2241 55.7069C87.9747 55.2701 87.5071 55 87.0003 55C86.4931 55 86.0254 55.2701 85.776 55.7069L82.9145 60.7168L77.217 61.8627C76.7204 61.9624 76.3165 62.3195 76.1598 62.7966C76.0034 63.2737 76.118 63.7979 76.4608 64.1677L80.3895 68.4097ZM97.1017 71.5031C96.7733 71.1482 96.663 70.6461 96.8132 70.1882C96.9633 69.7307 97.3508 69.3885 97.8268 69.2928L101.07 68.6402L102.699 65.7882C102.939 65.3691 103.387 65.1103 103.873 65.1103C104.359 65.1103 104.808 65.3695 105.047 65.7882L106.676 68.6402L109.919 69.2928C110.396 69.3885 110.783 69.7307 110.933 70.1882C111.084 70.6461 110.974 71.1482 110.645 71.5031L108.409 73.9183L108.784 77.1739C108.839 77.6517 108.63 78.1222 108.237 78.405C107.583 78.8749 106.917 78.5551 106.886 78.54L106.885 78.5395L103.873 77.18L100.862 78.5395C100.42 78.7393 99.9036 78.6878 99.5099 78.405C99.117 78.1222 98.9079 77.6517 98.9628 77.1739L99.3382 73.9183L97.1017 71.5031ZM103.466 92.6427V83.6965C103.466 83.086 103.067 82.5593 102.501 82.3747C97.506 80.6465 92.2905 79.7703 86.9988 79.7703C81.7071 79.7703 76.4915 80.6465 71.4965 82.3747C70.931 82.5593 70.5311 83.086 70.5311 83.6965V92.6427C70.5311 93.6175 71.5148 94.2831 72.4263 93.9485C77.1218 92.3244 82.0242 91.5007 86.9988 91.5007C91.9734 91.5007 96.8762 92.3244 101.572 93.9485C102.476 94.2806 103.466 93.6255 103.466 92.6427ZM108.2 92.8714L110.843 97.9719C111.378 99.0058 110.468 100.2 109.316 99.9716L101.785 98.4813C101.127 98.3504 100.654 97.7798 100.654 97.1163V96.5805C101.107 96.7393 101.58 96.819 102.059 96.819C104.386 96.819 106.279 94.9455 106.279 92.6431V86.0939L109.867 86.8049C110.839 86.997 111.31 88.1002 110.772 88.9246L108.2 92.8714ZM67.7183 86.095V92.6431C67.7183 94.9861 69.6438 96.8201 71.9377 96.8201C72.4178 96.8201 72.891 96.7386 73.3458 96.5798V97.1163C73.3458 97.7798 72.8723 98.3504 72.2153 98.4813L64.6846 99.9716C63.5325 100.2 62.6225 99.0055 63.1575 97.9719L65.7994 92.8714L63.2271 88.9246C62.6899 88.1005 63.1612 86.997 64.1335 86.8049L67.7183 86.095ZM65.216 77.1735L65.5914 73.9183L63.3546 71.5028C63.0261 71.1482 62.9158 70.6461 63.066 70.1882C63.2165 69.7307 63.6039 69.3885 64.08 69.2924L67.3235 68.6402L68.9528 65.7882C69.1919 65.3691 69.6405 65.1103 70.1265 65.1103C70.6124 65.1103 71.061 65.3691 71.3002 65.7882L72.9294 68.6402L76.1729 69.2924C76.649 69.3881 77.0365 69.7307 77.187 70.1882C77.3371 70.6461 77.2269 71.1482 76.8984 71.5028L74.662 73.9183L75.037 77.1735C75.0923 77.6517 74.8832 78.1222 74.4898 78.405C73.8364 78.8749 73.1702 78.5551 73.1388 78.54L73.1378 78.5395L70.1265 77.18L67.1155 78.5395C66.6731 78.7393 66.1564 78.6878 65.7631 78.405C65.3702 78.1222 65.1611 77.6517 65.216 77.1735Z" fill="url(#paint2_linear_1_35)"/>
<path d="M79.7303 74.1275L78.7369 74.013L78.7369 74.013L79.7303 74.1275ZM80.3895 68.4097L81.3829 68.5242L81.4355 68.0675L81.1231 67.7302L80.3895 68.4097ZM80.3008 75.4116L80.8849 74.5999L80.8844 74.5995L80.3008 75.4116ZM81.7107 75.5522L82.1219 76.4638L82.1222 76.4637L81.7107 75.5522ZM87.0003 73.1643L87.4117 72.2528L87.0003 72.0671L86.5888 72.2528L87.0003 73.1643ZM92.2894 75.5522L92.7128 74.6462L92.7009 74.6408L92.2894 75.5522ZM92.2912 75.5531L92.7177 74.6486L92.7146 74.6471L92.2912 75.5531ZM93.6993 75.4116L93.1157 74.5995L93.1152 74.5999L93.6993 75.4116ZM94.2702 74.1275L95.2636 74.013L95.2636 74.0129L94.2702 74.1275ZM93.6107 68.4097L92.877 67.7302L92.5646 68.0675L92.6173 68.5243L93.6107 68.4097ZM97.5394 64.1677L96.806 63.4879L96.8057 63.4882L97.5394 64.1677ZM97.8404 62.7966L98.7905 62.4847L98.7904 62.4845L97.8404 62.7966ZM96.7831 61.8627L96.5859 62.8431L96.5863 62.8431L96.7831 61.8627ZM91.086 60.7168L90.2177 61.2128L90.4432 61.6075L90.8888 61.6971L91.086 60.7168ZM88.2241 55.7069L87.3557 56.2027L87.3558 56.203L88.2241 55.7069ZM85.776 55.7069L86.6444 56.2029L86.6445 56.2027L85.776 55.7069ZM82.9145 60.7168L83.1117 61.6971L83.5573 61.6075L83.7828 61.2127L82.9145 60.7168ZM77.217 61.8627L77.4138 62.8431L77.4142 62.8431L77.217 61.8627ZM76.1598 62.7966L75.2097 62.4845L75.2095 62.4851L76.1598 62.7966ZM76.4608 64.1677L77.1945 63.4882L77.1942 63.4879L76.4608 64.1677ZM96.8132 70.1882L95.863 69.8764L95.863 69.8766L96.8132 70.1882ZM97.1017 71.5031L96.3678 72.1824L96.368 72.1826L97.1017 71.5031ZM97.8268 69.2928L98.0239 70.2732L98.0241 70.2731L97.8268 69.2928ZM101.07 68.6402L101.267 69.6206L101.713 69.5309L101.938 69.1363L101.07 68.6402ZM102.699 65.7882L101.831 65.292L101.831 65.2922L102.699 65.7882ZM105.047 65.7882L104.179 66.2841L104.179 66.2842L105.047 65.7882ZM106.676 68.6402L105.808 69.1363L106.033 69.5309L106.479 69.6206L106.676 68.6402ZM109.919 69.2928L109.722 70.2731L109.722 70.2732L109.919 69.2928ZM110.933 70.1882L109.983 70.5001L109.983 70.5005L110.933 70.1882ZM110.645 71.5031L111.379 72.1826L111.379 72.1824L110.645 71.5031ZM108.409 73.9183L107.675 73.2389L107.363 73.5761L107.415 74.0328L108.409 73.9183ZM108.784 77.1739L107.79 77.2883L107.79 77.2888L108.784 77.1739ZM108.237 78.405L107.653 77.5931L107.653 77.5931L108.237 78.405ZM106.886 78.54L107.318 77.6384L107.318 77.6383L106.886 78.54ZM106.885 78.5395L107.317 77.6379L107.307 77.6329L107.296 77.6281L106.885 78.5395ZM103.873 77.18L104.285 76.2686L103.873 76.0828L103.462 76.2686L103.873 77.18ZM100.862 78.5395L100.451 77.6281L100.451 77.6281L100.862 78.5395ZM99.5099 78.405L98.9258 79.2167L98.9265 79.2172L99.5099 78.405ZM98.9628 77.1739L97.9694 77.0593L97.9694 77.0596L98.9628 77.1739ZM99.3382 73.9183L100.332 74.0329L100.384 73.5762L100.072 73.2389L99.3382 73.9183ZM102.501 82.3747L102.174 83.3198L102.182 83.3226L102.191 83.3254L102.501 82.3747ZM71.4965 82.3747L71.8067 83.3254L71.8151 83.3226L71.8234 83.3198L71.4965 82.3747ZM72.4263 93.9485L72.0994 93.0035L72.0905 93.0065L72.0816 93.0098L72.4263 93.9485ZM101.572 93.9485L101.916 93.0098L101.908 93.0066L101.899 93.0035L101.572 93.9485ZM110.843 97.9719L111.731 97.5121L111.731 97.5119L110.843 97.9719ZM108.2 92.8714L107.362 92.3254L107.044 92.8139L107.312 93.3315L108.2 92.8714ZM109.316 99.9716L109.51 98.9907L109.51 98.9906L109.316 99.9716ZM101.785 98.4813L101.59 99.462L101.591 99.4622L101.785 98.4813ZM100.654 96.5805L100.985 95.6368L99.6543 95.1703V96.5805H100.654ZM106.279 86.0939L106.473 85.113L105.279 84.8763V86.0939H106.279ZM109.867 86.8049L109.672 87.7858L109.673 87.7859L109.867 86.8049ZM110.772 88.9246L109.935 88.3781L109.935 88.3786L110.772 88.9246ZM67.7183 86.095H68.7183V84.8776L67.5241 85.1141L67.7183 86.095ZM73.3458 96.5798H74.3458V95.1715L73.0162 95.6357L73.3458 96.5798ZM72.2153 98.4813L72.4095 99.4622L72.4107 99.462L72.2153 98.4813ZM64.6846 99.9716L64.4905 98.9906L64.4902 98.9907L64.6846 99.9716ZM63.1575 97.9719L62.2696 97.512L62.2695 97.5122L63.1575 97.9719ZM65.7994 92.8714L66.6873 93.3314L66.9554 92.8138L66.6371 92.3254L65.7994 92.8714ZM63.2271 88.9246L64.0649 88.3786L64.0648 88.3784L63.2271 88.9246ZM64.1335 86.8049L64.3274 87.7859L64.3277 87.7858L64.1335 86.8049ZM65.5914 73.9183L66.5848 74.0329L66.6374 73.5762L66.3251 73.2389L65.5914 73.9183ZM65.216 77.1735L64.2226 77.0589L64.2225 77.0594L65.216 77.1735ZM63.3546 71.5028L64.0883 70.8233L64.0881 70.8231L63.3546 71.5028ZM63.066 70.1882L62.1161 69.8757L62.1158 69.8766L63.066 70.1882ZM64.08 69.2924L63.8829 68.312L63.8822 68.3122L64.08 69.2924ZM67.3235 68.6402L67.5207 69.6206L67.9663 69.531L68.1918 69.1363L67.3235 68.6402ZM68.9528 65.7882L69.8211 66.2842L69.8213 66.2838L68.9528 65.7882ZM71.3002 65.7882L70.4316 66.2838L70.4319 66.2842L71.3002 65.7882ZM72.9294 68.6402L72.0611 69.1363L72.2866 69.531L72.7323 69.6206L72.9294 68.6402ZM76.1729 69.2924L75.9758 70.2728L75.9758 70.2728L76.1729 69.2924ZM77.187 70.1882L78.1372 69.8766L78.1369 69.8757L77.187 70.1882ZM76.8984 71.5028L76.1648 70.8232L76.1646 70.8234L76.8984 71.5028ZM74.662 73.9183L73.9282 73.2389L73.6159 73.5762L73.6685 74.0328L74.662 73.9183ZM75.037 77.1735L74.0435 77.2879L74.0436 77.2884L75.037 77.1735ZM74.4898 78.405L73.9061 77.5931L73.906 77.5931L74.4898 78.405ZM73.1388 78.54L73.5715 77.6384L73.5698 77.6376L73.1388 78.54ZM73.1378 78.5395L73.5689 77.6372L73.5591 77.6325L73.5493 77.6281L73.1378 78.5395ZM70.1265 77.18L70.5379 76.2686L70.1265 76.0828L69.715 76.2686L70.1265 77.18ZM67.1155 78.5395L66.704 77.6281L66.704 77.6281L67.1155 78.5395ZM65.7631 78.405L65.179 79.2167L65.1794 79.2169L65.7631 78.405ZM80.7237 74.242L81.3829 68.5242L79.396 68.2951L78.7369 74.013L80.7237 74.242ZM80.8844 74.5995C80.7667 74.515 80.708 74.378 80.7237 74.242L78.7369 74.013C78.6376 74.8747 79.0146 75.7187 79.7173 76.2237L80.8844 74.5995ZM81.2996 74.6407C81.1631 74.7022 81.0042 74.6857 80.8849 74.5999L79.7168 76.2233C80.4178 76.7276 81.3355 76.8185 82.1219 76.4638L81.2996 74.6407ZM86.5888 72.2528L81.2993 74.6408L82.1222 76.4637L87.4117 74.0757L86.5888 72.2528ZM92.7009 74.6408L87.4117 72.2528L86.5888 74.0757L91.8779 76.4637L92.7009 74.6408ZM92.7146 74.6471L92.7127 74.6463L91.866 76.4582L91.8679 76.4591L92.7146 74.6471ZM93.1152 74.5999C93.0129 74.6735 92.9245 74.6831 92.8448 74.6761C92.8006 74.6723 92.7621 74.6628 92.7357 74.6545C92.7232 74.6505 92.7152 74.6473 92.7128 74.6464C92.7117 74.6459 92.7118 74.6459 92.7135 74.6467C92.7155 74.6476 92.7178 74.6487 92.7177 74.6486L91.8648 76.4576C91.949 76.4973 93.1229 77.0584 94.2834 76.2233L93.1152 74.5999ZM93.2768 74.242C93.2924 74.3775 93.2338 74.5147 93.1157 74.5995L94.2829 76.2237C94.9851 75.719 95.363 74.8752 95.2636 74.013L93.2768 74.242ZM92.6173 68.5243L93.2768 74.2421L95.2636 74.0129L94.6041 68.2951L92.6173 68.5243ZM96.8057 63.4882L92.877 67.7302L94.3444 69.0892L98.273 64.8472L96.8057 63.4882ZM96.8903 63.1085C96.9332 63.2392 96.9026 63.3836 96.806 63.4879L98.2727 64.8475C98.8617 64.2122 99.0611 63.3089 98.7905 62.4847L96.8903 63.1085ZM96.5863 62.8431C96.733 62.8726 96.847 62.9769 96.8903 63.1087L98.7904 62.4845C98.5203 61.6621 97.8264 61.0522 96.98 60.8823L96.5863 62.8431ZM90.8888 61.6971L96.5859 62.8431L96.9803 60.8823L91.2832 59.7364L90.8888 61.6971ZM87.3558 56.203L90.2177 61.2128L91.9543 60.2207L89.0924 55.2109L87.3558 56.203ZM87.0003 56C87.1516 56 87.286 56.0806 87.3557 56.2027L89.0926 55.2112C88.6635 54.4595 87.8626 54 87.0003 54V56ZM86.6445 56.2027C86.7141 56.0808 86.8484 56 87.0003 56V54C86.1377 54 85.3367 54.4594 84.9076 55.2112L86.6445 56.2027ZM83.7828 61.2127L86.6444 56.2029L84.9077 55.211L82.0461 60.2208L83.7828 61.2127ZM77.4142 62.8431L83.1117 61.6971L82.7173 59.7364L77.0198 60.8823L77.4142 62.8431ZM77.1098 63.1087C77.1531 62.9769 77.2671 62.8726 77.4138 62.8431L77.0202 60.8823C76.1737 61.0522 75.4799 61.6621 75.2097 62.4845L77.1098 63.1087ZM77.1942 63.4879C77.0979 63.384 77.0671 63.2391 77.11 63.1081L75.2095 62.4851C74.9397 63.3082 75.1381 64.2118 75.7274 64.8475L77.1942 63.4879ZM81.1231 67.7302L77.1945 63.4882L75.7271 64.8472L79.6558 69.0892L81.1231 67.7302ZM95.863 69.8766C95.5991 70.6812 95.7939 71.5622 96.3678 72.1824L97.8356 70.8239C97.7526 70.7342 97.7269 70.611 97.7634 70.4998L95.863 69.8766ZM97.6297 68.3124C96.8044 68.4783 96.1267 69.073 95.863 69.8764L97.7633 70.5001C97.8 70.3884 97.8972 70.2987 98.0239 70.2732L97.6297 68.3124ZM100.873 67.6599L97.6296 68.3124L98.0241 70.2731L101.267 69.6206L100.873 67.6599ZM101.831 65.2922L100.202 68.1442L101.938 69.1363L103.568 66.2842L101.831 65.2922ZM103.873 64.1103C103.031 64.1103 102.25 64.5585 101.831 65.292L103.567 66.2844C103.627 66.1797 103.743 66.1103 103.873 66.1103V64.1103ZM105.915 65.2923C105.497 64.559 104.715 64.1103 103.873 64.1103V66.1103C104.004 66.1103 104.119 66.1799 104.179 66.2841L105.915 65.2923ZM107.545 68.1442L105.915 65.2922L104.179 66.2842L105.808 69.1363L107.545 68.1442ZM110.117 68.3124L106.874 67.6599L106.479 69.6206L109.722 70.2731L110.117 68.3124ZM111.884 69.8764C111.62 69.0729 110.942 68.4782 110.116 68.3124L109.722 70.2732C109.85 70.2987 109.947 70.3885 109.983 70.5001L111.884 69.8764ZM111.379 72.1824C111.953 71.5622 112.148 70.6809 111.883 69.876L109.983 70.5005C110.02 70.6113 109.994 70.7342 109.911 70.8239L111.379 72.1824ZM109.143 74.5978L111.379 72.1826L109.911 70.8237L107.675 73.2389L109.143 74.5978ZM109.777 77.0594L109.402 73.8039L107.415 74.0328L107.79 77.2883L109.777 77.0594ZM108.82 79.2169C109.506 78.7242 109.875 77.9003 109.777 77.0589L107.79 77.2888C107.804 77.4031 107.754 77.5202 107.653 77.5931L108.82 79.2169ZM106.453 79.4415C106.527 79.4771 107.68 80.0373 108.82 79.2169L107.653 77.5931C107.602 77.6298 107.561 77.6449 107.529 77.6522C107.494 77.6602 107.457 77.662 107.419 77.6585C107.38 77.6549 107.346 77.6464 107.324 77.6392C107.313 77.6358 107.307 77.6334 107.307 77.6332C107.307 77.6331 107.308 77.6336 107.31 77.6348C107.312 77.6354 107.313 77.6361 107.315 77.6369C107.317 77.6378 107.319 77.6386 107.318 77.6384L106.453 79.4415ZM106.452 79.4411L106.453 79.4416L107.318 77.6383L107.317 77.6379L106.452 79.4411ZM103.462 78.0914L106.473 79.4509L107.296 77.6281L104.285 76.2686L103.462 78.0914ZM101.274 79.4509L104.285 78.0914L103.462 76.2686L100.451 77.6281L101.274 79.4509ZM98.9265 79.2172C99.6106 79.7085 100.506 79.7975 101.274 79.4509L100.451 77.6281C100.334 77.681 100.197 77.667 100.093 77.5928L98.9265 79.2172ZM97.9694 77.0596C97.8727 77.9004 98.2411 78.724 98.9258 79.2167L100.094 77.5933C99.9928 77.5205 99.9431 77.403 99.9563 77.2881L97.9694 77.0596ZM98.3448 73.8038L97.9694 77.0593L99.9562 77.2884L100.332 74.0329L98.3448 73.8038ZM96.368 72.1826L98.6044 74.5978L100.072 73.2389L97.8355 70.8237L96.368 72.1826ZM102.466 83.6965V92.6427H104.466V83.6965H102.466ZM102.191 83.3254C102.358 83.38 102.466 83.5326 102.466 83.6965H104.466C104.466 82.6394 103.775 81.7385 102.811 81.4241L102.191 83.3254ZM86.9988 80.7703C92.1793 80.7703 97.2844 81.628 102.174 83.3198L102.828 81.4297C97.7277 79.6651 92.4017 78.7703 86.9988 78.7703V80.7703ZM71.8234 83.3198C76.7132 81.628 81.8182 80.7703 86.9988 80.7703V78.7703C81.5959 78.7703 76.2699 79.6651 71.1695 81.4297L71.8234 83.3198ZM71.5311 83.6965C71.5311 83.5326 71.6394 83.38 71.8067 83.3254L71.1862 81.4241C70.2227 81.7385 69.5311 82.6394 69.5311 83.6965H71.5311ZM71.5311 92.6427V83.6965H69.5311V92.6427H71.5311ZM72.0816 93.0098C71.8031 93.1121 71.5311 92.9013 71.5311 92.6427H69.5311C69.5311 94.3337 71.2265 95.4542 72.7709 94.8873L72.0816 93.0098ZM86.9988 90.5007C81.9131 90.5007 76.9001 91.3429 72.0994 93.0035L72.7532 94.8936C77.3434 93.3059 82.1354 92.5007 86.9988 92.5007V90.5007ZM101.899 93.0035C97.0978 91.3429 92.0845 90.5007 86.9988 90.5007V92.5007C91.8622 92.5007 96.6545 93.3059 101.245 94.8936L101.899 93.0035ZM102.466 92.6427C102.466 92.9012 102.195 93.1123 101.916 93.0098L101.227 94.8872C102.756 95.4489 104.466 94.3498 104.466 92.6427H102.466ZM111.731 97.5119L109.088 92.4114L107.312 93.3315L109.955 98.4319L111.731 97.5119ZM109.121 100.953C111.072 101.339 112.662 99.3106 111.731 97.5121L109.955 98.4317C110.094 98.7011 109.863 99.0607 109.51 98.9907L109.121 100.953ZM101.591 99.4622L109.121 100.953L109.51 98.9906L101.979 97.5003L101.591 99.4622ZM99.6543 97.1163C99.6543 98.2644 100.471 99.2396 101.59 99.462L101.98 97.5005C101.782 97.4612 101.654 97.2951 101.654 97.1163H99.6543ZM99.6543 96.5805V97.1163H101.654V96.5805H99.6543ZM102.059 95.819C101.692 95.819 101.331 95.7581 100.985 95.6368L100.324 97.5242C100.884 97.7205 101.468 97.819 102.059 97.819V95.819ZM105.279 92.6431C105.279 94.3833 103.843 95.819 102.059 95.819V97.819C104.928 97.819 107.279 95.5077 107.279 92.6431H105.279ZM105.279 86.0939V92.6431H107.279V86.0939H105.279ZM110.061 85.8239L106.473 85.113L106.085 87.0749L109.672 87.7858L110.061 85.8239ZM111.61 89.4711C112.541 88.0433 111.716 86.151 110.061 85.8238L109.673 87.7859C109.962 87.843 110.079 88.157 109.935 88.3781L111.61 89.4711ZM109.038 93.4174L111.61 89.4706L109.935 88.3786L107.362 92.3254L109.038 93.4174ZM68.7183 92.6431V86.095H66.7183V92.6431H68.7183ZM71.9377 95.8201C70.1752 95.8201 68.7183 94.4132 68.7183 92.6431H66.7183C66.7183 95.559 69.1124 97.8201 71.9377 97.8201V95.8201ZM73.0162 95.6357C72.6654 95.7581 72.3035 95.8201 71.9377 95.8201V97.8201C72.5321 97.8201 73.1166 97.719 73.6754 97.5239L73.0162 95.6357ZM74.3458 97.1163V96.5798H72.3458V97.1163H74.3458ZM72.4107 99.462C73.5271 99.2396 74.3458 98.2652 74.3458 97.1163H72.3458C72.3458 97.2943 72.2175 97.4612 72.02 97.5005L72.4107 99.462ZM64.8788 100.953L72.4095 99.4622L72.0212 97.5003L64.4905 98.9906L64.8788 100.953ZM62.2695 97.5122C61.3389 99.3098 62.9273 101.339 64.8791 100.953L64.4902 98.9907C64.1378 99.0606 63.9061 98.7011 64.0456 98.4316L62.2695 97.5122ZM64.9114 92.4115L62.2696 97.512L64.0455 98.4318L66.6873 93.3314L64.9114 92.4115ZM62.3893 89.4706L64.9616 93.4174L66.6371 92.3254L64.0649 88.3786L62.3893 89.4706ZM63.9396 85.8238C62.284 86.151 61.4589 88.0434 62.3894 89.4707L64.0648 88.3784C63.9209 88.1577 64.0384 87.843 64.3274 87.7859L63.9396 85.8238ZM67.5241 85.1141L63.9392 85.8239L64.3277 87.7858L67.9125 87.076L67.5241 85.1141ZM64.5979 73.8038L64.2226 77.0589L66.2094 77.288L66.5848 74.0329L64.5979 73.8038ZM62.6208 72.1822L64.8576 74.5978L66.3251 73.2389L64.0883 70.8233L62.6208 72.1822ZM62.1158 69.8766C61.852 70.6811 62.0465 71.5624 62.621 72.1824L64.0881 70.8231C64.0056 70.7341 63.9797 70.6111 64.0162 70.4998L62.1158 69.8766ZM63.8822 68.3122C63.0574 68.4786 62.3802 69.073 62.1161 69.8757L64.0159 70.5007C64.0528 70.3885 64.1505 70.2984 64.2778 70.2727L63.8822 68.3122ZM67.1264 67.6599L63.8829 68.312L64.2771 70.2728L67.5207 69.6206L67.1264 67.6599ZM68.0845 65.2922L66.4552 68.1442L68.1918 69.1363L69.8211 66.2842L68.0845 65.2922ZM70.1265 64.1103C69.2853 64.1103 68.5032 64.5583 68.0842 65.2926L69.8213 66.2838C69.8806 66.1799 69.9958 66.1103 70.1265 66.1103V64.1103ZM72.1687 65.2926C71.7497 64.5583 70.9677 64.1103 70.1265 64.1103V66.1103C70.2572 66.1103 70.3723 66.1799 70.4316 66.2838L72.1687 65.2926ZM73.7977 68.1442L72.1685 65.2922L70.4319 66.2842L72.0611 69.1363L73.7977 68.1442ZM76.3701 68.312L73.1266 67.6599L72.7323 69.6206L75.9758 70.2728L76.3701 68.312ZM78.1369 69.8757C77.873 69.0735 77.196 68.4781 76.37 68.312L75.9758 70.2728C76.1021 70.2982 76.2 70.388 76.2371 70.5007L78.1369 69.8757ZM77.632 72.1824C78.2064 71.5624 78.401 70.6811 78.1372 69.8766L76.2368 70.4998C76.2733 70.6111 76.2474 70.7341 76.1648 70.8232L77.632 72.1824ZM75.3958 74.5977L77.6322 72.1822L76.1646 70.8234L73.9282 73.2389L75.3958 74.5977ZM76.0304 77.059L75.6554 73.8039L73.6685 74.0328L74.0435 77.2879L76.0304 77.059ZM75.0736 79.2169C75.759 78.7241 76.1277 77.9001 76.0303 77.0586L74.0436 77.2884C74.0569 77.4032 74.0073 77.5203 73.9061 77.5931L75.0736 79.2169ZM72.706 79.4415C72.7802 79.4771 73.9328 80.0373 75.0737 79.2169L73.906 77.5931C73.855 77.6298 73.8137 77.6449 73.7819 77.6522C73.7474 77.6602 73.7106 77.662 73.6723 77.6585C73.6333 77.6549 73.5994 77.6464 73.5771 77.6392C73.5666 77.6359 73.5605 77.6334 73.56 77.6332C73.5598 77.6331 73.561 77.6336 73.5636 77.6348C73.565 77.6354 73.5665 77.6361 73.5683 77.6369C73.5702 77.6378 73.5717 77.6386 73.5715 77.6384L72.706 79.4415ZM72.7067 79.4418L72.7077 79.4423L73.5698 77.6376L73.5689 77.6372L72.7067 79.4418ZM69.715 78.0914L72.7263 79.4509L73.5493 77.6281L70.5379 76.2686L69.715 78.0914ZM67.527 79.4509L70.538 78.0914L69.715 76.2686L66.704 77.6281L67.527 79.4509ZM65.1794 79.2169C65.8634 79.7087 66.7596 79.7975 67.527 79.4509L66.704 77.6281C66.5867 77.6811 66.4495 77.6669 66.3469 77.5931L65.1794 79.2169ZM64.2225 77.0594C64.1259 77.9002 64.4942 78.7239 65.179 79.2167L66.3472 77.5933C66.2461 77.5206 66.1962 77.4031 66.2095 77.2876L64.2225 77.0594Z" fill="white" fill-opacity="0.0782099" mask="url(#path-4-inside-1_1_35)"/>
</g>
<defs>
<filter id="filter0_d_1_35" x="0.646164" y="0.475098" width="172.708" height="187.05" filterUnits="userSpaceOnUse" color-interpolation-filters="sRGB">
<feFlood flood-opacity="0" result="BackgroundImageFix"/>
<feColorMatrix in="SourceAlpha" type="matrix" values="0 0 0 0 0 0 0 0 0 0 0 0 0 0 0 0 0 0 127 0" result="hardAlpha"/>
<feOffset dy="12"/>
<feGaussianBlur stdDeviation="12"/>
<feColorMatrix type="matrix" values="0 0 0 0 0 0 0 0 0 0.0037911 0 0 0 0 0.170599 0 0 0 0.157184 0"/>
<feBlend mode="normal" in2="BackgroundImageFix" result="effect1_dropShadow_1_35"/>
<feBlend mode="normal" in="SourceGraphic" in2="effect1_dropShadow_1_35" result="shape"/>
</filter>
<filter id="filter1_d_1_35" x="55" y="51" width="64" height="61" filterUnits="userSpaceOnUse" color-interpolation-filters="sRGB">
<feFlood flood-opacity="0" result="BackgroundImageFix"/>
<feColorMatrix in="SourceAlpha" type="matrix" values="0 0 0 0 0 0 0 0 0 0 0 0 0 0 0 0 0 0 127 0" result="hardAlpha"/>
<feOffset dy="4"/>
<feGaussianBlur stdDeviation="4"/>
<feColorMatrix type="matrix" values="0 0 0 0 0 0 0 0 0 0.0037911 0 0 0 0 0.170599 0 0 0 0.157184 0"/>
<feBlend mode="normal" in2="BackgroundImageFix" result="effect1_dropShadow_1_35"/>
<feBlend mode="normal" in="SourceGraphic" in2="effect1_dropShadow_1_35" result="shape"/>
</filter>
<linearGradient id="paint0_linear_1_35" x1="15" y1="10" x2="15" y2="154" gradientUnits="userSpaceOnUse">
<stop stop-color="#4D4F95"/>
<stop offset="1" stop-color="#2B2D66"/>
</linearGradient>
<linearGradient id="paint1_linear_1_35" x1="63" y1="55" x2="63" y2="100" gradientUnits="userSpaceOnUse">
<stop stop-color="#4D4F95"/>
<stop offset="1" stop-color="#2B2D66"/>
</linearGradient>
<linearGradient id="paint2_linear_1_35" x1="111" y1="55" x2="63" y2="55" gradientUnits="userSpaceOnUse">
<stop stop-color="#6357F6"/>
<stop offset="1" stop-color="#E6606C"/>
</linearGradient>
</defs>
</svg>
