<svg width="174" height="188" viewBox="0 0 174 188" fill="none" xmlns="http://www.w3.org/2000/svg">
<g filter="url(#filter0_d_1_37)">
<path d="M79 14.6188C83.9504 11.7607 90.0496 11.7607 95 14.6188L141.354 41.3812C146.304 44.2393 149.354 49.5214 149.354 55.2376V108.762C149.354 114.479 146.304 119.761 141.354 122.619L95 149.381C90.0496 152.239 83.9504 152.239 79 149.381L32.6462 122.619C27.6958 119.761 24.6462 114.479 24.6462 108.762V55.2376C24.6462 49.5214 27.6958 44.2393 32.6462 41.3812L79 14.6188Z" fill="url(#paint0_linear_1_37)"/>
<path d="M94.5 15.4848L140.854 42.2472C145.495 44.9267 148.354 49.8786 148.354 55.2376V108.762C148.354 114.121 145.495 119.073 140.854 121.753L94.5 148.515C89.859 151.195 84.141 151.195 79.5 148.515L33.1462 121.753C28.5052 119.073 25.6462 114.121 25.6462 108.762V55.2376C25.6462 49.8786 28.5052 44.9267 33.1462 42.2472L79.5 15.4848C84.141 12.8053 89.859 12.8053 94.5 15.4848Z" stroke="white" stroke-opacity="0.0782099" stroke-width="2"/>
</g>
<path d="M92 28.3301L129.796 50.1519C133.2 52.1169 135.296 55.7483 135.296 59.6782V103.322C135.296 107.252 133.2 110.883 129.796 112.848L92 134.67C88.5966 136.635 84.4034 136.635 81 134.67L43.2035 112.848C39.8001 110.883 37.7035 107.252 37.7035 103.322V59.6782C37.7035 55.7483 39.8001 52.1169 43.2035 50.1519L81 28.3301C84.4034 26.3652 88.5966 26.3652 92 28.3301Z" stroke="#E6606C" stroke-width="2"/>
<g filter="url(#filter1_d_1_37)">
<mask id="path-4-inside-1_1_37" fill="white">
<path fill-rule="evenodd" clip-rule="evenodd" d="M68.9249 67H105.075C108.296 67 111 69.6096 111 72.9398V91.0602C111 94.3772 108.308 97 105.075 97H96.4065C94.8252 97 93.3362 96.3832 92.2137 95.2627L89.2009 92.2427C88.6212 91.6583 87.8207 91.326 87 91.326C86.1793 91.326 85.3788 91.6583 84.8038 92.238L81.7892 95.2602C80.6638 96.3832 79.1748 97 77.5935 97H68.9249C65.7045 97 63 94.3904 63 91.0602V72.9398C63 69.6228 65.6924 67 68.9249 67ZM70.5311 82.0002C70.5311 85.2753 73.1891 87.94 76.4561 87.94C79.7234 87.94 82.3813 85.2753 82.3813 82.0002C82.3813 78.725 79.7234 76.06 76.4561 76.06C73.1891 76.06 70.5311 78.725 70.5311 82.0002ZM97.5439 87.94C94.2766 87.94 91.6187 85.2753 91.6187 82.0002C91.6187 78.725 94.2766 76.06 97.5439 76.06C100.811 76.06 103.469 78.725 103.469 82.0002C103.469 85.2753 100.811 87.94 97.5439 87.94ZM76.4561 78.8796C74.74 78.8796 73.3436 80.2794 73.3436 82.0002C73.3436 83.7206 74.74 85.1204 76.4561 85.1204C78.1725 85.1204 79.5688 83.7206 79.5688 82.0002C79.5688 80.2794 78.1725 78.8796 76.4561 78.8796ZM97.5439 78.8796C95.8275 78.8796 94.4312 80.2794 94.4312 82.0002C94.4312 83.7206 95.8275 85.1204 97.5439 85.1204C99.26 85.1204 100.656 83.7206 100.656 82.0002C100.656 80.2794 99.26 78.8796 97.5439 78.8796Z"/>
</mask>
<path fill-rule="evenodd" clip-rule="evenodd" d="M68.9249 67H105.075C108.296 67 111 69.6096 111 72.9398V91.0602C111 94.3772 108.308 97 105.075 97H96.4065C94.8252 97 93.3362 96.3832 92.2137 95.2627L89.2009 92.2427C88.6212 91.6583 87.8207 91.326 87 91.326C86.1793 91.326 85.3788 91.6583 84.8038 92.238L81.7892 95.2602C80.6638 96.3832 79.1748 97 77.5935 97H68.9249C65.7045 97 63 94.3904 63 91.0602V72.9398C63 69.6228 65.6924 67 68.9249 67ZM70.5311 82.0002C70.5311 85.2753 73.1891 87.94 76.4561 87.94C79.7234 87.94 82.3813 85.2753 82.3813 82.0002C82.3813 78.725 79.7234 76.06 76.4561 76.06C73.1891 76.06 70.5311 78.725 70.5311 82.0002ZM97.5439 87.94C94.2766 87.94 91.6187 85.2753 91.6187 82.0002C91.6187 78.725 94.2766 76.06 97.5439 76.06C100.811 76.06 103.469 78.725 103.469 82.0002C103.469 85.2753 100.811 87.94 97.5439 87.94ZM76.4561 78.8796C74.74 78.8796 73.3436 80.2794 73.3436 82.0002C73.3436 83.7206 74.74 85.1204 76.4561 85.1204C78.1725 85.1204 79.5688 83.7206 79.5688 82.0002C79.5688 80.2794 78.1725 78.8796 76.4561 78.8796ZM97.5439 78.8796C95.8275 78.8796 94.4312 80.2794 94.4312 82.0002C94.4312 83.7206 95.8275 85.1204 97.5439 85.1204C99.26 85.1204 100.656 83.7206 100.656 82.0002C100.656 80.2794 99.26 78.8796 97.5439 78.8796Z" fill="url(#paint1_linear_1_37)"/>
<path fill-rule="evenodd" clip-rule="evenodd" d="M68.9249 67H105.075C108.296 67 111 69.6096 111 72.9398V91.0602C111 94.3772 108.308 97 105.075 97H96.4065C94.8252 97 93.3362 96.3832 92.2137 95.2627L89.2009 92.2427C88.6212 91.6583 87.8207 91.326 87 91.326C86.1793 91.326 85.3788 91.6583 84.8038 92.238L81.7892 95.2602C80.6638 96.3832 79.1748 97 77.5935 97H68.9249C65.7045 97 63 94.3904 63 91.0602V72.9398C63 69.6228 65.6924 67 68.9249 67ZM70.5311 82.0002C70.5311 85.2753 73.1891 87.94 76.4561 87.94C79.7234 87.94 82.3813 85.2753 82.3813 82.0002C82.3813 78.725 79.7234 76.06 76.4561 76.06C73.1891 76.06 70.5311 78.725 70.5311 82.0002ZM97.5439 87.94C94.2766 87.94 91.6187 85.2753 91.6187 82.0002C91.6187 78.725 94.2766 76.06 97.5439 76.06C100.811 76.06 103.469 78.725 103.469 82.0002C103.469 85.2753 100.811 87.94 97.5439 87.94ZM76.4561 78.8796C74.74 78.8796 73.3436 80.2794 73.3436 82.0002C73.3436 83.7206 74.74 85.1204 76.4561 85.1204C78.1725 85.1204 79.5688 83.7206 79.5688 82.0002C79.5688 80.2794 78.1725 78.8796 76.4561 78.8796ZM97.5439 78.8796C95.8275 78.8796 94.4312 80.2794 94.4312 82.0002C94.4312 83.7206 95.8275 85.1204 97.5439 85.1204C99.26 85.1204 100.656 83.7206 100.656 82.0002C100.656 80.2794 99.26 78.8796 97.5439 78.8796Z" fill="url(#paint2_linear_1_37)"/>
<path d="M92.2137 95.2627L91.5058 95.969L91.5073 95.9705L92.2137 95.2627ZM89.2009 92.2427L88.4909 92.9469L88.493 92.949L89.2009 92.2427ZM84.8038 92.238L85.5118 92.9442L85.5138 92.9422L84.8038 92.238ZM81.7892 95.2602L82.4956 95.968L82.4972 95.9664L81.7892 95.2602ZM105.075 66H68.9249V68H105.075V66ZM112 72.9398C112 69.0485 108.839 66 105.075 66V68C107.752 68 110 70.1706 110 72.9398H112ZM112 91.0602V72.9398H110V91.0602H112ZM105.075 98C108.854 98 112 94.9355 112 91.0602H110C110 93.8189 107.761 96 105.075 96V98ZM96.4065 98H105.075V96H96.4065V98ZM91.5073 95.9705C92.8166 97.2776 94.5595 98 96.4065 98V96C95.0909 96 93.8557 95.4889 92.9202 94.555L91.5073 95.9705ZM88.493 92.949L91.5058 95.969L92.9217 94.5565L89.9089 91.5365L88.493 92.949ZM87 92.326C87.5546 92.326 88.0994 92.5522 88.4909 92.9469L89.9109 91.5385C89.143 90.7643 88.0867 90.326 87 90.326V92.326ZM85.5138 92.9422C85.8998 92.553 86.4442 92.326 87 92.326V90.326C85.9144 90.326 84.8578 90.7635 84.0938 91.5338L85.5138 92.9422ZM82.4972 95.9664L85.5118 92.9442L84.0958 91.5317L81.0812 94.554L82.4972 95.9664ZM77.5935 98C79.4408 98 81.1835 97.2773 82.4956 95.968L81.0828 94.5523C80.1441 95.4891 78.9088 96 77.5935 96V98ZM68.9249 98H77.5935V96H68.9249V98ZM62 91.0602C62 94.9515 65.161 98 68.9249 98V96C66.2479 96 64 93.8294 64 91.0602H62ZM62 72.9398V91.0602H64V72.9398H62ZM68.9249 66C65.1461 66 62 69.0645 62 72.9398H64C64 70.1811 66.2386 68 68.9249 68V66ZM76.4561 86.94C73.7437 86.94 71.5311 84.7254 71.5311 82.0002H69.5311C69.5311 85.8253 72.6344 88.94 76.4561 88.94V86.94ZM81.3813 82.0002C81.3813 84.7254 79.1688 86.94 76.4561 86.94V88.94C80.278 88.94 83.3813 85.8253 83.3813 82.0002H81.3813ZM76.4561 77.06C79.1687 77.06 81.3813 79.2749 81.3813 82.0002H83.3813C83.3813 78.1751 80.2781 75.06 76.4561 75.06V77.06ZM71.5311 82.0002C71.5311 79.2749 73.7438 77.06 76.4561 77.06V75.06C72.6344 75.06 69.5311 78.1752 69.5311 82.0002H71.5311ZM90.6187 82.0002C90.6187 85.8253 93.722 88.94 97.5439 88.94V86.94C94.8312 86.94 92.6187 84.7254 92.6187 82.0002H90.6187ZM97.5439 75.06C93.7219 75.06 90.6187 78.1751 90.6187 82.0002H92.6187C92.6187 79.2749 94.8313 77.06 97.5439 77.06V75.06ZM104.469 82.0002C104.469 78.1752 101.366 75.06 97.5439 75.06V77.06C100.256 77.06 102.469 79.2749 102.469 82.0002H104.469ZM97.5439 88.94C101.366 88.94 104.469 85.8253 104.469 82.0002H102.469C102.469 84.7254 100.256 86.94 97.5439 86.94V88.94ZM74.3436 82.0002C74.3436 80.8293 75.2947 79.8796 76.4561 79.8796V77.8796C74.1853 77.8796 72.3436 79.7296 72.3436 82.0002H74.3436ZM76.4561 84.1204C75.2946 84.1204 74.3436 83.1706 74.3436 82.0002H72.3436C72.3436 84.2705 74.1853 86.1204 76.4561 86.1204V84.1204ZM78.5688 82.0002C78.5688 83.1706 77.6179 84.1204 76.4561 84.1204V86.1204C78.7271 86.1204 80.5688 84.2705 80.5688 82.0002H78.5688ZM76.4561 79.8796C77.6178 79.8796 78.5688 80.8294 78.5688 82.0002H80.5688C80.5688 79.7295 78.7271 77.8796 76.4561 77.8796V79.8796ZM95.4312 82.0002C95.4312 80.8294 96.3822 79.8796 97.5439 79.8796V77.8796C95.2729 77.8796 93.4312 79.7295 93.4312 82.0002H95.4312ZM97.5439 84.1204C96.3821 84.1204 95.4312 83.1706 95.4312 82.0002H93.4312C93.4312 84.2705 95.2729 86.1204 97.5439 86.1204V84.1204ZM99.6564 82.0002C99.6564 83.1706 98.7054 84.1204 97.5439 84.1204V86.1204C99.8147 86.1204 101.656 84.2705 101.656 82.0002H99.6564ZM97.5439 79.8796C98.7053 79.8796 99.6564 80.8293 99.6564 82.0002H101.656C101.656 79.7296 99.8147 77.8796 97.5439 77.8796V79.8796Z" fill="white" fill-opacity="0.0782099" mask="url(#path-4-inside-1_1_37)"/>
</g>
<defs>
<filter id="filter0_d_1_37" x="0.646164" y="0.475098" width="172.708" height="187.05" filterUnits="userSpaceOnUse" color-interpolation-filters="sRGB">
<feFlood flood-opacity="0" result="BackgroundImageFix"/>
<feColorMatrix in="SourceAlpha" type="matrix" values="0 0 0 0 0 0 0 0 0 0 0 0 0 0 0 0 0 0 127 0" result="hardAlpha"/>
<feOffset dy="12"/>
<feGaussianBlur stdDeviation="12"/>
<feColorMatrix type="matrix" values="0 0 0 0 0 0 0 0 0 0.0037911 0 0 0 0 0.170599 0 0 0 0.157184 0"/>
<feBlend mode="normal" in2="BackgroundImageFix" result="effect1_dropShadow_1_37"/>
<feBlend mode="normal" in="SourceGraphic" in2="effect1_dropShadow_1_37" result="shape"/>
</filter>
<filter id="filter1_d_1_37" x="55" y="63" width="64" height="46" filterUnits="userSpaceOnUse" color-interpolation-filters="sRGB">
<feFlood flood-opacity="0" result="BackgroundImageFix"/>
<feColorMatrix in="SourceAlpha" type="matrix" values="0 0 0 0 0 0 0 0 0 0 0 0 0 0 0 0 0 0 127 0" result="hardAlpha"/>
<feOffset dy="4"/>
<feGaussianBlur stdDeviation="4"/>
<feColorMatrix type="matrix" values="0 0 0 0 0 0 0 0 0 0.0037911 0 0 0 0 0.170599 0 0 0 0.157184 0"/>
<feBlend mode="normal" in2="BackgroundImageFix" result="effect1_dropShadow_1_37"/>
<feBlend mode="normal" in="SourceGraphic" in2="effect1_dropShadow_1_37" result="shape"/>
</filter>
<linearGradient id="paint0_linear_1_37" x1="15" y1="10" x2="15" y2="154" gradientUnits="userSpaceOnUse">
<stop stop-color="#4D4F95"/>
<stop offset="1" stop-color="#2B2D66"/>
</linearGradient>
<linearGradient id="paint1_linear_1_37" x1="63" y1="67" x2="63" y2="97" gradientUnits="userSpaceOnUse">
<stop stop-color="#4D4F95"/>
<stop offset="1" stop-color="#2B2D66"/>
</linearGradient>
<linearGradient id="paint2_linear_1_37" x1="111" y1="67" x2="63" y2="67" gradientUnits="userSpaceOnUse">
<stop stop-color="#6357F6"/>
<stop offset="1" stop-color="#E6606C"/>
</linearGradient>
</defs>
</svg>
