<svg width="174" height="188" viewBox="0 0 174 188" fill="none" xmlns="http://www.w3.org/2000/svg">
<g filter="url(#filter0_d_1_36)">
<path d="M79 14.6188C83.9504 11.7607 90.0496 11.7607 95 14.6188L141.354 41.3812C146.304 44.2393 149.354 49.5214 149.354 55.2376V108.762C149.354 114.479 146.304 119.761 141.354 122.619L95 149.381C90.0496 152.239 83.9504 152.239 79 149.381L32.6462 122.619C27.6958 119.761 24.6462 114.479 24.6462 108.762V55.2376C24.6462 49.5214 27.6958 44.2393 32.6462 41.3812L79 14.6188Z" fill="url(#paint0_linear_1_36)"/>
<path d="M94.5 15.4848L140.854 42.2472C145.495 44.9267 148.354 49.8786 148.354 55.2376V108.762C148.354 114.121 145.495 119.073 140.854 121.753L94.5 148.515C89.859 151.195 84.141 151.195 79.5 148.515L33.1462 121.753C28.5052 119.073 25.6462 114.121 25.6462 108.762V55.2376C25.6462 49.8786 28.5052 44.9267 33.1462 42.2472L79.5 15.4848C84.141 12.8053 89.859 12.8053 94.5 15.4848Z" stroke="white" stroke-opacity="0.0782099" stroke-width="2"/>
</g>
<path d="M92 28.3301L129.796 50.1519C133.2 52.1169 135.296 55.7483 135.296 59.6782V103.322C135.296 107.252 133.2 110.883 129.796 112.848L92 134.67C88.5966 136.635 84.4034 136.635 81 134.67L43.2035 112.848C39.8001 110.883 37.7035 107.252 37.7035 103.322V59.6782C37.7035 55.7483 39.8001 52.1169 43.2035 50.1519L81 28.3301C84.4034 26.3652 88.5966 26.3652 92 28.3301Z" stroke="#5087F7" stroke-width="2"/>
<g filter="url(#filter1_d_1_36)">
<mask id="path-4-inside-1_1_36" fill="white">
<path fill-rule="evenodd" clip-rule="evenodd" d="M85.0111 70.4914L75.4915 80.011L63.412 67.9316C63.148 67.6683 63 67.3105 63 66.9374V59.4062C63 58.6295 63.6295 58 64.4063 58H71.9374C72.3106 58 72.6683 58.1479 72.9316 58.412L85.0111 70.4914ZM97.8732 84.6242C99.4373 83.0601 101.973 83.0601 103.537 84.6242C105.101 86.1883 105.101 88.7239 103.537 90.288L95.3031 98.5222C93.739 100.086 91.2034 100.086 89.6393 98.5222C88.0752 96.9581 88.0752 94.4221 89.6393 92.8581L97.8732 84.6242ZM104.662 93.1408C106.587 95.0645 109.789 98.2648 109.789 98.2648L109.791 98.2673C111.686 100.168 111.146 103.046 109.596 104.583C108.577 105.605 105.587 107.085 103.283 104.774L98.1548 99.6483L104.662 93.1408ZM64.21 98.2662L64.2089 98.267C62.3137 100.168 62.8539 103.046 64.4044 104.583C65.4232 105.605 68.413 107.085 70.7172 104.774L75.8452 99.648L69.3377 93.1408C67.4128 95.0645 64.2114 98.2648 64.2114 98.2648L64.21 98.2662ZM111 66.9374V59.4062C111 58.6295 110.37 58 109.594 58H102.063C101.689 58 101.332 58.1479 101.068 58.412L77.48 81.9999L87 91.5199L110.588 67.932C110.852 67.6683 111 67.3105 111 66.9374ZM70.4627 84.6242C72.0267 83.0601 74.5627 83.0601 76.1268 84.6242L84.3607 92.8581C85.9248 94.4221 85.9248 96.9581 84.3607 98.5222C82.7966 100.086 80.2606 100.086 78.6965 98.5222L70.4627 90.288C68.8986 88.7239 68.8986 86.1883 70.4627 84.6242Z"/>
</mask>
<path fill-rule="evenodd" clip-rule="evenodd" d="M85.0111 70.4914L75.4915 80.011L63.412 67.9316C63.148 67.6683 63 67.3105 63 66.9374V59.4062C63 58.6295 63.6295 58 64.4063 58H71.9374C72.3106 58 72.6683 58.1479 72.9316 58.412L85.0111 70.4914ZM97.8732 84.6242C99.4373 83.0601 101.973 83.0601 103.537 84.6242C105.101 86.1883 105.101 88.7239 103.537 90.288L95.3031 98.5222C93.739 100.086 91.2034 100.086 89.6393 98.5222C88.0752 96.9581 88.0752 94.4221 89.6393 92.8581L97.8732 84.6242ZM104.662 93.1408C106.587 95.0645 109.789 98.2648 109.789 98.2648L109.791 98.2673C111.686 100.168 111.146 103.046 109.596 104.583C108.577 105.605 105.587 107.085 103.283 104.774L98.1548 99.6483L104.662 93.1408ZM64.21 98.2662L64.2089 98.267C62.3137 100.168 62.8539 103.046 64.4044 104.583C65.4232 105.605 68.413 107.085 70.7172 104.774L75.8452 99.648L69.3377 93.1408C67.4128 95.0645 64.2114 98.2648 64.2114 98.2648L64.21 98.2662ZM111 66.9374V59.4062C111 58.6295 110.37 58 109.594 58H102.063C101.689 58 101.332 58.1479 101.068 58.412L77.48 81.9999L87 91.5199L110.588 67.932C110.852 67.6683 111 67.3105 111 66.9374ZM70.4627 84.6242C72.0267 83.0601 74.5627 83.0601 76.1268 84.6242L84.3607 92.8581C85.9248 94.4221 85.9248 96.9581 84.3607 98.5222C82.7966 100.086 80.2606 100.086 78.6965 98.5222L70.4627 90.288C68.8986 88.7239 68.8986 86.1883 70.4627 84.6242Z" fill="url(#paint1_linear_1_36)"/>
<path fill-rule="evenodd" clip-rule="evenodd" d="M85.0111 70.4914L75.4915 80.011L63.412 67.9316C63.148 67.6683 63 67.3105 63 66.9374V59.4062C63 58.6295 63.6295 58 64.4063 58H71.9374C72.3106 58 72.6683 58.1479 72.9316 58.412L85.0111 70.4914ZM97.8732 84.6242C99.4373 83.0601 101.973 83.0601 103.537 84.6242C105.101 86.1883 105.101 88.7239 103.537 90.288L95.3031 98.5222C93.739 100.086 91.2034 100.086 89.6393 98.5222C88.0752 96.9581 88.0752 94.4221 89.6393 92.8581L97.8732 84.6242ZM104.662 93.1408C106.587 95.0645 109.789 98.2648 109.789 98.2648L109.791 98.2673C111.686 100.168 111.146 103.046 109.596 104.583C108.577 105.605 105.587 107.085 103.283 104.774L98.1548 99.6483L104.662 93.1408ZM64.21 98.2662L64.2089 98.267C62.3137 100.168 62.8539 103.046 64.4044 104.583C65.4232 105.605 68.413 107.085 70.7172 104.774L75.8452 99.648L69.3377 93.1408C67.4128 95.0645 64.2114 98.2648 64.2114 98.2648L64.21 98.2662ZM111 66.9374V59.4062C111 58.6295 110.37 58 109.594 58H102.063C101.689 58 101.332 58.1479 101.068 58.412L77.48 81.9999L87 91.5199L110.588 67.932C110.852 67.6683 111 67.3105 111 66.9374ZM70.4627 84.6242C72.0267 83.0601 74.5627 83.0601 76.1268 84.6242L84.3607 92.8581C85.9248 94.4221 85.9248 96.9581 84.3607 98.5222C82.7966 100.086 80.2606 100.086 78.6965 98.5222L70.4627 90.288C68.8986 88.7239 68.8986 86.1883 70.4627 84.6242Z" fill="url(#paint2_linear_1_36)"/>
<path d="M75.4915 80.011L74.7844 80.7182L75.4915 81.4253L76.1986 80.7182L75.4915 80.011ZM85.0111 70.4914L85.7182 71.1985L86.4253 70.4914L85.7182 69.7843L85.0111 70.4914ZM63.412 67.9316L64.1191 67.2245L64.1181 67.2235L63.412 67.9316ZM72.9316 58.412L72.2236 59.1181L72.2245 59.1191L72.9316 58.412ZM103.537 84.6242L104.244 83.9171L104.244 83.9171L103.537 84.6242ZM97.8732 84.6242L97.1661 83.9171L97.1661 83.9171L97.8732 84.6242ZM103.537 90.288L102.83 89.5809L102.83 89.5809L103.537 90.288ZM95.3031 98.5222L96.0102 99.2293L96.0102 99.2293L95.3031 98.5222ZM89.6393 98.5222L90.3464 97.8151L90.3464 97.8151L89.6393 98.5222ZM89.6393 92.8581L90.3464 93.5652L90.3464 93.5652L89.6393 92.8581ZM109.789 98.2648L110.496 97.5577L110.496 97.5576L109.789 98.2648ZM104.662 93.1408L105.369 92.4335L104.662 91.7268L103.955 92.4337L104.662 93.1408ZM109.791 98.2673L110.499 97.5613L110.498 97.5602L109.791 98.2673ZM109.596 104.583L108.892 103.872L108.887 103.877L109.596 104.583ZM103.283 104.774L103.991 104.068L103.99 104.067L103.283 104.774ZM98.1548 99.6483L97.4477 98.9412L96.7404 99.6485L97.4478 100.356L98.1548 99.6483ZM64.2089 98.267L63.6267 97.4539L63.5592 97.5022L63.5006 97.561L64.2089 98.267ZM64.21 98.2662L64.7922 99.0792L64.8518 99.0365L64.9046 98.9856L64.21 98.2662ZM64.4044 104.583L65.1127 103.877L65.1083 103.872L64.4044 104.583ZM70.7172 104.774L70.0102 104.067L70.0091 104.068L70.7172 104.774ZM75.8452 99.648L76.5522 100.355L77.2596 99.6481L76.5523 98.9408L75.8452 99.648ZM69.3377 93.1408L70.0447 92.4336L69.3378 91.7268L68.6307 92.4335L69.3377 93.1408ZM64.2114 98.2648L64.906 98.9842L64.9123 98.9782L64.9184 98.972L64.2114 98.2648ZM101.068 58.412L101.775 59.1191L101.776 59.1186L101.068 58.412ZM77.48 81.9999L76.7729 81.2928L76.0658 81.9999L76.7729 82.707L77.48 81.9999ZM87 91.5199L86.2929 92.227L87 92.9341L87.7071 92.227L87 91.5199ZM110.588 67.932L109.881 67.2244L109.881 67.2249L110.588 67.932ZM76.1268 84.6242L76.8339 83.9171L76.8339 83.9171L76.1268 84.6242ZM70.4627 84.6242L69.7555 83.9171L69.7555 83.9171L70.4627 84.6242ZM84.3607 92.8581L83.6536 93.5652L83.6536 93.5652L84.3607 92.8581ZM84.3607 98.5222L83.6536 97.8151L83.6536 97.8151L84.3607 98.5222ZM78.6965 98.5222L77.9894 99.2293L77.9894 99.2293L78.6965 98.5222ZM70.4627 90.288L71.1698 89.5809L71.1698 89.5809L70.4627 90.288ZM76.1986 80.7182L85.7182 71.1985L84.304 69.7843L74.7844 79.3039L76.1986 80.7182ZM62.7049 68.6387L74.7844 80.7182L76.1986 79.3039L64.1191 67.2245L62.7049 68.6387ZM62 66.9374C62 67.5751 62.2529 68.188 62.7059 68.6397L64.1181 67.2235C64.043 67.1486 64 67.0459 64 66.9374H62ZM62 59.4062V66.9374H64V59.4062H62ZM64.4063 57C63.0772 57 62 58.0772 62 59.4062H64C64 59.1818 64.1818 59 64.4063 59V57ZM71.9374 57H64.4063V59H71.9374V57ZM73.6397 57.7059C73.188 57.2529 72.5752 57 71.9374 57V59C72.0459 59 72.1486 59.043 72.2236 59.1181L73.6397 57.7059ZM85.7182 69.7843L73.6387 57.7049L72.2245 59.1191L84.304 71.1985L85.7182 69.7843ZM104.244 83.9171C102.29 81.9625 99.1207 81.9625 97.1661 83.9171L98.5803 85.3313C99.7538 84.1577 101.657 84.1577 102.83 85.3313L104.244 83.9171ZM104.244 90.9951C106.199 89.0405 106.199 85.8717 104.244 83.9171L102.83 85.3313C104.004 86.5049 104.004 88.4073 102.83 89.5809L104.244 90.9951ZM96.0102 99.2293L104.244 90.9951L102.83 89.5809L94.596 97.8151L96.0102 99.2293ZM88.9322 99.2293C90.8868 101.184 94.0556 101.184 96.0102 99.2293L94.596 97.8151C93.4224 98.9887 91.52 98.9887 90.3464 97.8151L88.9322 99.2293ZM88.9322 92.151C86.9776 94.1056 86.9776 97.2747 88.9322 99.2293L90.3464 97.8151C89.1728 96.6416 89.1728 94.7387 90.3464 93.5652L88.9322 92.151ZM97.1661 83.9171L88.9322 92.151L90.3464 93.5652L98.5803 85.3313L97.1661 83.9171ZM109.789 98.2648C110.496 97.5576 110.496 97.5575 110.496 97.5575C110.495 97.5575 110.495 97.5575 110.495 97.5574C110.495 97.5573 110.495 97.5572 110.495 97.557C110.495 97.5566 110.494 97.556 110.493 97.5552C110.492 97.5537 110.489 97.5514 110.486 97.5483C110.48 97.5422 110.471 97.5331 110.459 97.5211C110.435 97.4972 110.4 97.4619 110.354 97.4163C110.263 97.325 110.13 97.1925 109.965 97.0274C109.635 96.6974 109.175 96.2372 108.654 95.7169C107.613 94.6764 106.332 93.3953 105.369 92.4335L103.955 93.8481C104.918 94.8099 106.199 96.0909 107.24 97.1314C107.761 97.6517 108.221 98.1118 108.551 98.4419C108.716 98.607 108.849 98.7395 108.94 98.8307C108.986 98.8764 109.021 98.9117 109.045 98.9356C109.057 98.9476 109.066 98.9567 109.072 98.9628C109.075 98.9658 109.078 98.9681 109.079 98.9697C109.08 98.9705 109.081 98.971 109.081 98.9714C109.081 98.9716 109.081 98.9718 109.081 98.9719C109.081 98.9719 109.082 98.972 109.082 98.972C109.082 98.972 109.082 98.972 109.789 98.2648ZM110.498 97.5602L110.496 97.5577L109.081 98.9719L109.084 98.9745L110.498 97.5602ZM110.299 105.293C112.136 103.473 112.884 99.953 110.499 97.5613L109.083 98.9734C110.489 100.384 110.156 102.62 108.892 103.872L110.299 105.293ZM102.575 105.48C103.996 106.906 105.669 107.169 107.098 106.912C108.476 106.665 109.66 105.935 110.304 105.289L108.887 103.877C108.513 104.253 107.693 104.774 106.744 104.944C105.848 105.105 104.874 104.954 103.991 104.068L102.575 105.48ZM97.4478 100.356L102.576 105.481L103.99 104.067L98.8617 98.9411L97.4478 100.356ZM103.955 92.4337L97.4477 98.9412L98.8619 100.355L105.369 93.8479L103.955 92.4337ZM64.7911 99.08L64.7922 99.0792L63.6278 97.4531L63.6267 97.4539L64.7911 99.08ZM65.1083 103.872C63.8441 102.619 63.511 100.384 64.9171 98.9729L63.5006 97.561C61.1164 99.953 61.8637 103.473 63.7005 105.293L65.1083 103.872ZM70.0091 104.068C69.1261 104.953 68.1518 105.105 67.2556 104.944C66.3074 104.773 65.4873 104.253 65.1127 103.877L63.6962 105.289C64.3403 105.935 65.5245 106.665 66.902 106.912C68.3313 107.169 70.0041 106.905 71.4253 105.48L70.0091 104.068ZM75.1383 98.9407L70.0102 104.067L71.4241 105.481L76.5522 100.355L75.1383 98.9407ZM68.6306 93.8479L75.1381 100.355L76.5523 98.9408L70.0447 92.4336L68.6306 93.8479ZM64.2114 98.2648C64.9184 98.972 64.9184 98.972 64.9185 98.972C64.9185 98.972 64.9185 98.9719 64.9186 98.9719C64.9187 98.9718 64.9188 98.9716 64.919 98.9714C64.9194 98.971 64.92 98.9705 64.9207 98.9697C64.9223 98.9681 64.9246 98.9658 64.9277 98.9628C64.9338 98.9567 64.9429 98.9476 64.9548 98.9356C64.9788 98.9117 65.0141 98.8764 65.0597 98.8307C65.151 98.7395 65.2836 98.607 65.4487 98.4419C65.7789 98.1118 66.2392 97.6517 66.7597 97.1314C67.8007 96.0909 69.0822 94.8099 70.0446 93.8481L68.6307 92.4335C67.6683 93.3953 66.3867 94.6764 65.3458 95.7169C64.8253 96.2372 64.365 96.6974 64.0348 97.0274C63.8696 97.1925 63.7371 97.325 63.6458 97.4163C63.6001 97.4619 63.5648 97.4972 63.5409 97.5211C63.5289 97.5331 63.5198 97.5422 63.5137 97.5483C63.5106 97.5514 63.5083 97.5537 63.5068 97.5552C63.506 97.556 63.5054 97.5566 63.505 97.557C63.5048 97.5572 63.5047 97.5573 63.5046 97.5574C63.5045 97.5575 63.5045 97.5575 63.5045 97.5575C63.5045 97.5575 63.5044 97.5576 64.2114 98.2648ZM64.9046 98.9856L64.906 98.9842L63.5169 97.5454L63.5154 97.5468L64.9046 98.9856ZM110 59.4062V66.9374H112V59.4062H110ZM109.594 59C109.818 59 110 59.1818 110 59.4062H112C112 58.0772 110.923 57 109.594 57V59ZM102.063 59H109.594V57H102.063V59ZM101.776 59.1186C101.852 59.0427 101.954 59 102.063 59V57C101.424 57 100.812 57.2532 100.361 57.7054L101.776 59.1186ZM78.1871 82.707L101.775 59.1191L100.361 57.7049L76.7729 81.2928L78.1871 82.707ZM87.7071 90.8128L78.1871 81.2928L76.7729 82.707L86.2929 92.227L87.7071 90.8128ZM109.881 67.2249L86.2929 90.8128L87.7071 92.227L111.295 68.6391L109.881 67.2249ZM110 66.9374C110 67.0458 109.957 67.1488 109.881 67.2244L111.295 68.6396C111.747 68.1878 112 67.5752 112 66.9374H110ZM76.8339 83.9171C74.8793 81.9625 71.7102 81.9625 69.7555 83.9171L71.1698 85.3313C72.3433 84.1577 74.2462 84.1577 75.4197 85.3313L76.8339 83.9171ZM85.0678 92.151L76.8339 83.9171L75.4197 85.3313L83.6536 93.5652L85.0678 92.151ZM85.0678 99.2293C87.0224 97.2747 87.0224 94.1056 85.0678 92.151L83.6536 93.5652C84.8272 94.7387 84.8272 96.6416 83.6536 97.8151L85.0678 99.2293ZM77.9894 99.2293C79.944 101.184 83.1132 101.184 85.0678 99.2293L83.6536 97.8151C82.4801 98.9887 80.5772 98.9887 79.4036 97.8151L77.9894 99.2293ZM69.7555 90.9951L77.9894 99.2293L79.4037 97.8151L71.1698 89.5809L69.7555 90.9951ZM69.7555 83.9171C67.8009 85.8717 67.8009 89.0405 69.7555 90.9951L71.1698 89.5809C69.9962 88.4073 69.9962 86.5049 71.1698 85.3313L69.7555 83.9171Z" fill="white" fill-opacity="0.0782099" mask="url(#path-4-inside-1_1_36)"/>
</g>
<defs>
<filter id="filter0_d_1_36" x="0.646164" y="0.475098" width="172.708" height="187.05" filterUnits="userSpaceOnUse" color-interpolation-filters="sRGB">
<feFlood flood-opacity="0" result="BackgroundImageFix"/>
<feColorMatrix in="SourceAlpha" type="matrix" values="0 0 0 0 0 0 0 0 0 0 0 0 0 0 0 0 0 0 127 0" result="hardAlpha"/>
<feOffset dy="12"/>
<feGaussianBlur stdDeviation="12"/>
<feColorMatrix type="matrix" values="0 0 0 0 0 0 0 0 0 0.0037911 0 0 0 0 0.170599 0 0 0 0.157184 0"/>
<feBlend mode="normal" in2="BackgroundImageFix" result="effect1_dropShadow_1_36"/>
<feBlend mode="normal" in="SourceGraphic" in2="effect1_dropShadow_1_36" result="shape"/>
</filter>
<filter id="filter1_d_1_36" x="55" y="54" width="64" height="64" filterUnits="userSpaceOnUse" color-interpolation-filters="sRGB">
<feFlood flood-opacity="0" result="BackgroundImageFix"/>
<feColorMatrix in="SourceAlpha" type="matrix" values="0 0 0 0 0 0 0 0 0 0 0 0 0 0 0 0 0 0 127 0" result="hardAlpha"/>
<feOffset dy="4"/>
<feGaussianBlur stdDeviation="4"/>
<feColorMatrix type="matrix" values="0 0 0 0 0 0 0 0 0 0.0037911 0 0 0 0 0.170599 0 0 0 0.157184 0"/>
<feBlend mode="normal" in2="BackgroundImageFix" result="effect1_dropShadow_1_36"/>
<feBlend mode="normal" in="SourceGraphic" in2="effect1_dropShadow_1_36" result="shape"/>
</filter>
<linearGradient id="paint0_linear_1_36" x1="15" y1="10" x2="15" y2="154" gradientUnits="userSpaceOnUse">
<stop stop-color="#4D4F95"/>
<stop offset="1" stop-color="#2B2D66"/>
</linearGradient>
<linearGradient id="paint1_linear_1_36" x1="63" y1="58" x2="63" y2="106" gradientUnits="userSpaceOnUse">
<stop stop-color="#4D4F95"/>
<stop offset="1" stop-color="#2B2D66"/>
</linearGradient>
<linearGradient id="paint2_linear_1_36" x1="111" y1="58" x2="63" y2="58" gradientUnits="userSpaceOnUse">
<stop stop-color="#6357F6"/>
<stop offset="1" stop-color="#E6606C"/>
</linearGradient>
</defs>
</svg>
